M48
; DRILL file {KiCad (7.0.0)} date Mon May 29 13:22:45 2023
; FORMAT={-:-/ absolute / inch / decimal}
; #@! TF.CreationDate,2023-05-29T13:22:45-05:00
; #@! TF.GenerationSoftware,Kicad,Pcbnew,(7.0.0)
; #@! TF.FileFunction,Plated,1,2,PTH
FMAT,2
INCH
; #@! TA.AperFunction,Plated,PTH,ViaDrill
T1C0.0138
; #@! TA.AperFunction,Plated,PTH,ComponentDrill
T2C0.0138
; #@! TA.AperFunction,Plated,PTH,ViaDrill
T3C0.0157
; #@! TA.AperFunction,Plated,PTH,ComponentDrill
T4C0.0236
; #@! TA.AperFunction,Plated,PTH,ComponentDrill
T5C0.0256
; #@! TA.AperFunction,Plated,PTH,ComponentDrill
T6C0.0866
%
G90
G05
T1
X4.372Y-3.894
X4.548Y-3.8582
T2
X4.4183Y-3.8868
X4.4183Y-3.937
X4.4183Y-3.9872
X4.4685Y-3.8868
X4.4685Y-3.937
X4.4685Y-3.9872
X4.5187Y-3.8868
X4.5187Y-3.937
X4.5187Y-3.9872
T3
X3.1181Y-3.78
X3.1181Y-3.858
X3.1181Y-4.016
X3.1181Y-4.094
X3.4364Y-3.796
X3.444Y-4.091
X3.523Y-3.7966
X3.644Y-3.87
X3.742Y-3.741
X3.8287Y-3.937
X3.9152Y-4.0416
X3.93Y-3.766
X3.95Y-4.06
X3.982Y-3.816
X4.0453Y-3.937
X4.136Y-4.058
X4.138Y-3.744
X4.138Y-3.8039
X4.138Y-3.914
X4.1383Y-3.9541
X4.2138Y-3.9882
X4.3383Y-4.084
X4.438Y-3.744
X4.4437Y-4.1166
X4.4688Y-4.1469
X4.5039Y-4.165
X4.604Y-3.802
X4.608Y-4.076
X4.638Y-4.13
X4.646Y-3.744
X4.679Y-3.948
X4.714Y-3.7086
X4.818Y-3.744
X4.818Y-3.7874
X4.818Y-4.13
X4.864Y-4.0335
T5
X3.2913Y-3.837
X3.2913Y-3.887
X3.2913Y-3.937
X3.2913Y-3.987
X3.2913Y-4.037
T6
X2.9134Y-3.937
X4.9606Y-3.937
T4
G00X3.7697Y-3.8807
M15
G01X3.7894Y-3.8807
M16
G05
G00X3.7697Y-3.9933
M15
G01X3.7894Y-3.9933
M16
G05
G00X4.0846Y-3.8807
M15
G01X4.1043Y-3.8807
M16
G05
G00X4.0846Y-3.9933
M15
G01X4.1043Y-3.9933
M16
G05
T0
M30
