%TF.GenerationSoftware,KiCad,Pcbnew,(7.0.0)*%
%TF.CreationDate,2023-05-29T13:22:43-05:00*%
%TF.ProjectId,rp2040-radar-presense-sensor,72703230-3430-42d7-9261-6461722d7072,rev?*%
%TF.SameCoordinates,Original*%
%TF.FileFunction,Soldermask,Top*%
%TF.FilePolarity,Negative*%
%FSLAX46Y46*%
G04 Gerber Fmt 4.6, Leading zero omitted, Abs format (unit mm)*
G04 Created by KiCad (PCBNEW (7.0.0)) date 2023-05-29 13:22:43*
%MOMM*%
%LPD*%
G01*
G04 APERTURE LIST*
G04 Aperture macros list*
%AMRoundRect*
0 Rectangle with rounded corners*
0 $1 Rounding radius*
0 $2 $3 $4 $5 $6 $7 $8 $9 X,Y pos of 4 corners*
0 Add a 4 corners polygon primitive as box body*
4,1,4,$2,$3,$4,$5,$6,$7,$8,$9,$2,$3,0*
0 Add four circle primitives for the rounded corners*
1,1,$1+$1,$2,$3*
1,1,$1+$1,$4,$5*
1,1,$1+$1,$6,$7*
1,1,$1+$1,$8,$9*
0 Add four rect primitives between the rounded corners*
20,1,$1+$1,$2,$3,$4,$5,0*
20,1,$1+$1,$4,$5,$6,$7,0*
20,1,$1+$1,$6,$7,$8,$9,0*
20,1,$1+$1,$8,$9,$2,$3,0*%
G04 Aperture macros list end*
%ADD10C,2.000000*%
%ADD11RoundRect,0.200000X0.200000X0.275000X-0.200000X0.275000X-0.200000X-0.275000X0.200000X-0.275000X0*%
%ADD12RoundRect,0.225000X-0.225000X-0.250000X0.225000X-0.250000X0.225000X0.250000X-0.225000X0.250000X0*%
%ADD13RoundRect,0.225000X0.225000X0.250000X-0.225000X0.250000X-0.225000X-0.250000X0.225000X-0.250000X0*%
%ADD14C,4.400000*%
%ADD15R,1.000000X0.900000*%
%ADD16RoundRect,0.200000X-0.200000X-0.275000X0.200000X-0.275000X0.200000X0.275000X-0.200000X0.275000X0*%
%ADD17RoundRect,0.150000X-0.650000X-0.150000X0.650000X-0.150000X0.650000X0.150000X-0.650000X0.150000X0*%
%ADD18RoundRect,0.225000X-0.250000X0.225000X-0.250000X-0.225000X0.250000X-0.225000X0.250000X0.225000X0*%
%ADD19RoundRect,0.112500X-0.187500X-0.112500X0.187500X-0.112500X0.187500X0.112500X-0.187500X0.112500X0*%
%ADD20RoundRect,0.225000X0.250000X-0.225000X0.250000X0.225000X-0.250000X0.225000X-0.250000X-0.225000X0*%
%ADD21RoundRect,0.250000X0.475000X-0.250000X0.475000X0.250000X-0.475000X0.250000X-0.475000X-0.250000X0*%
%ADD22R,1.400000X1.200000*%
%ADD23RoundRect,0.050000X0.050000X-0.387500X0.050000X0.387500X-0.050000X0.387500X-0.050000X-0.387500X0*%
%ADD24RoundRect,0.050000X0.387500X-0.050000X0.387500X0.050000X-0.387500X0.050000X-0.387500X-0.050000X0*%
%ADD25RoundRect,0.144000X1.456000X-1.456000X1.456000X1.456000X-1.456000X1.456000X-1.456000X-1.456000X0*%
%ADD26RoundRect,0.150000X0.512500X0.150000X-0.512500X0.150000X-0.512500X-0.150000X0.512500X-0.150000X0*%
%ADD27C,0.710000*%
%ADD28R,0.300000X1.150000*%
%ADD29O,1.600000X1.100000*%
%ADD30R,1.000000X1.000000*%
%ADD31O,1.000000X1.000000*%
G04 APERTURE END LIST*
D10*
%TO.C,FID2*%
X74000000Y-95750000D03*
%TD*%
%TO.C,FID1*%
X126000000Y-104250000D03*
%TD*%
D11*
%TO.C,R2*%
X84425000Y-94945600D03*
X82775000Y-94945600D03*
%TD*%
D12*
%TO.C,C9*%
X119722600Y-96621600D03*
X121272600Y-96621600D03*
%TD*%
D13*
%TO.C,C6*%
X107806600Y-100431600D03*
X106256600Y-100431600D03*
%TD*%
D14*
%TO.C,H1*%
X74000000Y-100000000D03*
%TD*%
D13*
%TO.C,C13*%
X111819800Y-104902000D03*
X110269800Y-104902000D03*
%TD*%
D15*
%TO.C,SW2*%
X79199999Y-99049999D03*
X79199999Y-94949999D03*
X80799999Y-99049999D03*
X80799999Y-94949999D03*
%TD*%
%TO.C,SW1*%
X79199999Y-105049999D03*
X79199999Y-100949999D03*
X80799999Y-105049999D03*
X80799999Y-100949999D03*
%TD*%
D12*
%TO.C,C15*%
X115146600Y-104902000D03*
X116696600Y-104902000D03*
%TD*%
D16*
%TO.C,R4*%
X102349800Y-95097600D03*
X103999800Y-95097600D03*
%TD*%
D11*
%TO.C,R1*%
X84425000Y-105054400D03*
X82775000Y-105054400D03*
%TD*%
D12*
%TO.C,C1*%
X119722600Y-104902000D03*
X121272600Y-104902000D03*
%TD*%
D11*
%TO.C,R6*%
X97294200Y-103073200D03*
X95644200Y-103073200D03*
%TD*%
D17*
%TO.C,U1*%
X86112800Y-100101400D03*
X86112800Y-101371400D03*
X86112800Y-102641400D03*
X86112800Y-103911400D03*
X93312800Y-103911400D03*
X93312800Y-102641400D03*
X93312800Y-101371400D03*
X93312800Y-100101400D03*
%TD*%
D11*
%TO.C,R7*%
X103999800Y-103073200D03*
X102349800Y-103073200D03*
%TD*%
D12*
%TO.C,C12*%
X110066600Y-95097600D03*
X111616600Y-95097600D03*
%TD*%
D16*
%TO.C,R3*%
X119672600Y-98145600D03*
X121322600Y-98145600D03*
%TD*%
%TO.C,R5*%
X102349800Y-96621600D03*
X103999800Y-96621600D03*
%TD*%
D18*
%TO.C,C4*%
X92557600Y-95694200D03*
X92557600Y-97244200D03*
%TD*%
D13*
%TO.C,C11*%
X107806600Y-98907600D03*
X106256600Y-98907600D03*
%TD*%
D14*
%TO.C,H2*%
X126000000Y-100000000D03*
%TD*%
D19*
%TO.C,D1*%
X95622400Y-96469200D03*
X97722400Y-96469200D03*
%TD*%
D20*
%TO.C,C3*%
X94081600Y-97244200D03*
X94081600Y-95694200D03*
%TD*%
D21*
%TO.C,C8*%
X86360000Y-97393800D03*
X86360000Y-95493800D03*
%TD*%
D13*
%TO.C,C7*%
X107806600Y-96621600D03*
X106256600Y-96621600D03*
%TD*%
D22*
%TO.C,Y1*%
X121495999Y-101410399D03*
X119295999Y-101410399D03*
X119295999Y-103110399D03*
X121495999Y-103110399D03*
%TD*%
D13*
%TO.C,C2*%
X121272600Y-99669600D03*
X119722600Y-99669600D03*
%TD*%
D23*
%TO.C,U3*%
X110900000Y-103437500D03*
X111300000Y-103437500D03*
X111700000Y-103437500D03*
X112100000Y-103437500D03*
X112500000Y-103437500D03*
X112900000Y-103437500D03*
X113300000Y-103437500D03*
X113700000Y-103437500D03*
X114100000Y-103437500D03*
X114500000Y-103437500D03*
X114900000Y-103437500D03*
X115300000Y-103437500D03*
X115700000Y-103437500D03*
X116100000Y-103437500D03*
D24*
X116937500Y-102600000D03*
X116937500Y-102200000D03*
X116937500Y-101800000D03*
X116937500Y-101400000D03*
X116937500Y-101000000D03*
X116937500Y-100600000D03*
X116937500Y-100200000D03*
X116937500Y-99800000D03*
X116937500Y-99400000D03*
X116937500Y-99000000D03*
X116937500Y-98600000D03*
X116937500Y-98200000D03*
X116937500Y-97800000D03*
X116937500Y-97400000D03*
D23*
X116100000Y-96562500D03*
X115700000Y-96562500D03*
X115300000Y-96562500D03*
X114900000Y-96562500D03*
X114500000Y-96562500D03*
X114100000Y-96562500D03*
X113700000Y-96562500D03*
X113300000Y-96562500D03*
X112900000Y-96562500D03*
X112500000Y-96562500D03*
X112100000Y-96562500D03*
X111700000Y-96562500D03*
X111300000Y-96562500D03*
X110900000Y-96562500D03*
D24*
X110062500Y-97400000D03*
X110062500Y-97800000D03*
X110062500Y-98200000D03*
X110062500Y-98600000D03*
X110062500Y-99000000D03*
X110062500Y-99400000D03*
X110062500Y-99800000D03*
X110062500Y-100200000D03*
X110062500Y-100600000D03*
X110062500Y-101000000D03*
X110062500Y-101400000D03*
X110062500Y-101800000D03*
X110062500Y-102200000D03*
X110062500Y-102600000D03*
D25*
X113500000Y-100000000D03*
%TD*%
D26*
%TO.C,U2*%
X90717800Y-97383600D03*
X90717800Y-96433600D03*
X90717800Y-95483600D03*
X88442800Y-95483600D03*
X88442800Y-97383600D03*
%TD*%
D12*
%TO.C,C14*%
X115349800Y-95097600D03*
X116899800Y-95097600D03*
%TD*%
D27*
%TO.C,J2*%
X96000000Y-100000000D03*
X104000000Y-100000000D03*
D28*
X97249999Y-98514999D03*
X98749999Y-98514999D03*
X99249999Y-98514999D03*
X99749999Y-98514999D03*
X100249999Y-98514999D03*
X100749999Y-98514999D03*
X101249999Y-98514999D03*
X102749999Y-98514999D03*
X102749999Y-101484999D03*
X101249999Y-101484999D03*
X100749999Y-101484999D03*
X100249999Y-101484999D03*
X99749999Y-101484999D03*
X99249999Y-101484999D03*
X98749999Y-101484999D03*
X97249999Y-101484999D03*
D29*
X95999999Y-98569999D03*
X103999999Y-98569999D03*
X95999999Y-101429999D03*
X103999999Y-101429999D03*
%TD*%
D12*
%TO.C,C5*%
X119722600Y-95097600D03*
X121272600Y-95097600D03*
%TD*%
D13*
%TO.C,C10*%
X107806600Y-95097600D03*
X106256600Y-95097600D03*
%TD*%
D30*
%TO.C,J1*%
X83599999Y-102539999D03*
D31*
X83599999Y-101269999D03*
X83599999Y-99999999D03*
X83599999Y-98729999D03*
X83599999Y-97459999D03*
%TD*%
M02*
