%TF.GenerationSoftware,KiCad,Pcbnew,(7.0.0)*%
%TF.CreationDate,2023-05-29T13:22:43-05:00*%
%TF.ProjectId,rp2040-radar-presense-sensor,72703230-3430-42d7-9261-6461722d7072,rev?*%
%TF.SameCoordinates,Original*%
%TF.FileFunction,Copper,L1,Top*%
%TF.FilePolarity,Positive*%
%FSLAX46Y46*%
G04 Gerber Fmt 4.6, Leading zero omitted, Abs format (unit mm)*
G04 Created by KiCad (PCBNEW (7.0.0)) date 2023-05-29 13:22:43*
%MOMM*%
%LPD*%
G01*
G04 APERTURE LIST*
G04 Aperture macros list*
%AMRoundRect*
0 Rectangle with rounded corners*
0 $1 Rounding radius*
0 $2 $3 $4 $5 $6 $7 $8 $9 X,Y pos of 4 corners*
0 Add a 4 corners polygon primitive as box body*
4,1,4,$2,$3,$4,$5,$6,$7,$8,$9,$2,$3,0*
0 Add four circle primitives for the rounded corners*
1,1,$1+$1,$2,$3*
1,1,$1+$1,$4,$5*
1,1,$1+$1,$6,$7*
1,1,$1+$1,$8,$9*
0 Add four rect primitives between the rounded corners*
20,1,$1+$1,$2,$3,$4,$5,0*
20,1,$1+$1,$4,$5,$6,$7,0*
20,1,$1+$1,$6,$7,$8,$9,0*
20,1,$1+$1,$8,$9,$2,$3,0*%
G04 Aperture macros list end*
%TA.AperFunction,SMDPad,CuDef*%
%ADD10C,1.000000*%
%TD*%
%TA.AperFunction,SMDPad,CuDef*%
%ADD11RoundRect,0.200000X0.200000X0.275000X-0.200000X0.275000X-0.200000X-0.275000X0.200000X-0.275000X0*%
%TD*%
%TA.AperFunction,SMDPad,CuDef*%
%ADD12RoundRect,0.225000X-0.225000X-0.250000X0.225000X-0.250000X0.225000X0.250000X-0.225000X0.250000X0*%
%TD*%
%TA.AperFunction,SMDPad,CuDef*%
%ADD13RoundRect,0.225000X0.225000X0.250000X-0.225000X0.250000X-0.225000X-0.250000X0.225000X-0.250000X0*%
%TD*%
%TA.AperFunction,ComponentPad*%
%ADD14C,4.400000*%
%TD*%
%TA.AperFunction,SMDPad,CuDef*%
%ADD15R,1.000000X0.900000*%
%TD*%
%TA.AperFunction,SMDPad,CuDef*%
%ADD16RoundRect,0.200000X-0.200000X-0.275000X0.200000X-0.275000X0.200000X0.275000X-0.200000X0.275000X0*%
%TD*%
%TA.AperFunction,SMDPad,CuDef*%
%ADD17RoundRect,0.150000X-0.650000X-0.150000X0.650000X-0.150000X0.650000X0.150000X-0.650000X0.150000X0*%
%TD*%
%TA.AperFunction,SMDPad,CuDef*%
%ADD18RoundRect,0.225000X-0.250000X0.225000X-0.250000X-0.225000X0.250000X-0.225000X0.250000X0.225000X0*%
%TD*%
%TA.AperFunction,SMDPad,CuDef*%
%ADD19RoundRect,0.112500X-0.187500X-0.112500X0.187500X-0.112500X0.187500X0.112500X-0.187500X0.112500X0*%
%TD*%
%TA.AperFunction,SMDPad,CuDef*%
%ADD20RoundRect,0.225000X0.250000X-0.225000X0.250000X0.225000X-0.250000X0.225000X-0.250000X-0.225000X0*%
%TD*%
%TA.AperFunction,SMDPad,CuDef*%
%ADD21RoundRect,0.250000X0.475000X-0.250000X0.475000X0.250000X-0.475000X0.250000X-0.475000X-0.250000X0*%
%TD*%
%TA.AperFunction,SMDPad,CuDef*%
%ADD22R,1.400000X1.200000*%
%TD*%
%TA.AperFunction,SMDPad,CuDef*%
%ADD23RoundRect,0.050000X0.050000X-0.387500X0.050000X0.387500X-0.050000X0.387500X-0.050000X-0.387500X0*%
%TD*%
%TA.AperFunction,SMDPad,CuDef*%
%ADD24RoundRect,0.050000X0.387500X-0.050000X0.387500X0.050000X-0.387500X0.050000X-0.387500X-0.050000X0*%
%TD*%
%TA.AperFunction,ComponentPad*%
%ADD25C,0.600000*%
%TD*%
%TA.AperFunction,SMDPad,CuDef*%
%ADD26RoundRect,0.144000X1.456000X-1.456000X1.456000X1.456000X-1.456000X1.456000X-1.456000X-1.456000X0*%
%TD*%
%TA.AperFunction,SMDPad,CuDef*%
%ADD27RoundRect,0.150000X0.512500X0.150000X-0.512500X0.150000X-0.512500X-0.150000X0.512500X-0.150000X0*%
%TD*%
%TA.AperFunction,SMDPad,CuDef*%
%ADD28R,0.300000X1.150000*%
%TD*%
%TA.AperFunction,ComponentPad*%
%ADD29O,1.600000X1.100000*%
%TD*%
%TA.AperFunction,ComponentPad*%
%ADD30R,1.000000X1.000000*%
%TD*%
%TA.AperFunction,ComponentPad*%
%ADD31O,1.000000X1.000000*%
%TD*%
%TA.AperFunction,ViaPad*%
%ADD32C,0.800000*%
%TD*%
%TA.AperFunction,ViaPad*%
%ADD33C,0.600000*%
%TD*%
%TA.AperFunction,Conductor*%
%ADD34C,0.200000*%
%TD*%
%TA.AperFunction,Conductor*%
%ADD35C,0.300000*%
%TD*%
G04 APERTURE END LIST*
D10*
%TO.P,FID2,*%
%TO.N,*%
X74000000Y-95750000D03*
%TD*%
%TO.P,FID1,*%
%TO.N,*%
X126000000Y-104250000D03*
%TD*%
D11*
%TO.P,R2,1*%
%TO.N,+3V3*%
X84425000Y-94945600D03*
%TO.P,R2,2*%
%TO.N,QSPI_SS*%
X82775000Y-94945600D03*
%TD*%
D12*
%TO.P,C9,1*%
%TO.N,+3V3*%
X119722600Y-96621600D03*
%TO.P,C9,2*%
%TO.N,GND*%
X121272600Y-96621600D03*
%TD*%
D13*
%TO.P,C6,1*%
%TO.N,+1V1*%
X107806600Y-100431600D03*
%TO.P,C6,2*%
%TO.N,GND*%
X106256600Y-100431600D03*
%TD*%
D14*
%TO.P,H1,1,1*%
%TO.N,unconnected-(H1-Pad1)*%
X74000000Y-100000000D03*
%TD*%
D13*
%TO.P,C13,1*%
%TO.N,+3V3*%
X111819800Y-104902000D03*
%TO.P,C13,2*%
%TO.N,GND*%
X110269800Y-104902000D03*
%TD*%
D15*
%TO.P,SW2,1,1*%
%TO.N,GND*%
X79199999Y-99049999D03*
X79199999Y-94949999D03*
%TO.P,SW2,2,2*%
%TO.N,Net-(U3-RUN)*%
X80799999Y-99049999D03*
X80799999Y-94949999D03*
%TD*%
%TO.P,SW1,1,1*%
%TO.N,GND*%
X79199999Y-105049999D03*
X79199999Y-100949999D03*
%TO.P,SW1,2,2*%
%TO.N,Net-(R1-Pad2)*%
X80799999Y-105049999D03*
X80799999Y-100949999D03*
%TD*%
D12*
%TO.P,C15,1*%
%TO.N,+3V3*%
X115146600Y-104902000D03*
%TO.P,C15,2*%
%TO.N,GND*%
X116696600Y-104902000D03*
%TD*%
D16*
%TO.P,R4,1*%
%TO.N,USB_D+*%
X102349800Y-95097600D03*
%TO.P,R4,2*%
%TO.N,Net-(U3-USB_DP)*%
X103999800Y-95097600D03*
%TD*%
D11*
%TO.P,R1,1*%
%TO.N,QSPI_SS*%
X84425000Y-105054400D03*
%TO.P,R1,2*%
%TO.N,Net-(R1-Pad2)*%
X82775000Y-105054400D03*
%TD*%
D12*
%TO.P,C1,1*%
%TO.N,Net-(U3-XIN)*%
X119722600Y-104902000D03*
%TO.P,C1,2*%
%TO.N,GND*%
X121272600Y-104902000D03*
%TD*%
D11*
%TO.P,R6,1*%
%TO.N,Net-(J2-CC1)*%
X97294200Y-103073200D03*
%TO.P,R6,2*%
%TO.N,GND*%
X95644200Y-103073200D03*
%TD*%
D17*
%TO.P,U1,1,~{CS}*%
%TO.N,QSPI_SS*%
X86112800Y-100101400D03*
%TO.P,U1,2,DO(IO1)*%
%TO.N,/QSPI_SD1*%
X86112800Y-101371400D03*
%TO.P,U1,3,IO2*%
%TO.N,/QSPI_SD2*%
X86112800Y-102641400D03*
%TO.P,U1,4,GND*%
%TO.N,GND*%
X86112800Y-103911400D03*
%TO.P,U1,5,DI(IO0)*%
%TO.N,/QSPI_SD0*%
X93312800Y-103911400D03*
%TO.P,U1,6,CLK*%
%TO.N,QSPI_SCLK*%
X93312800Y-102641400D03*
%TO.P,U1,7,IO3*%
%TO.N,/QSPI_SD3*%
X93312800Y-101371400D03*
%TO.P,U1,8,VCC*%
%TO.N,+3V3*%
X93312800Y-100101400D03*
%TD*%
D11*
%TO.P,R7,1*%
%TO.N,GND*%
X103999800Y-103073200D03*
%TO.P,R7,2*%
%TO.N,Net-(J2-CC2)*%
X102349800Y-103073200D03*
%TD*%
D12*
%TO.P,C12,1*%
%TO.N,+3V3*%
X110066600Y-95097600D03*
%TO.P,C12,2*%
%TO.N,GND*%
X111616600Y-95097600D03*
%TD*%
D16*
%TO.P,R3,1*%
%TO.N,Net-(U3-XOUT)*%
X119672600Y-98145600D03*
%TO.P,R3,2*%
%TO.N,Net-(C2-Pad1)*%
X121322600Y-98145600D03*
%TD*%
%TO.P,R5,1*%
%TO.N,USB_D-*%
X102349800Y-96621600D03*
%TO.P,R5,2*%
%TO.N,Net-(U3-USB_DM)*%
X103999800Y-96621600D03*
%TD*%
D18*
%TO.P,C4,1*%
%TO.N,+3V3*%
X92557600Y-95694200D03*
%TO.P,C4,2*%
%TO.N,GND*%
X92557600Y-97244200D03*
%TD*%
D13*
%TO.P,C11,1*%
%TO.N,+3V3*%
X107806600Y-98907600D03*
%TO.P,C11,2*%
%TO.N,GND*%
X106256600Y-98907600D03*
%TD*%
D14*
%TO.P,H2,1,1*%
%TO.N,unconnected-(H2-Pad1)*%
X126000000Y-100000000D03*
%TD*%
D19*
%TO.P,D1,1,K*%
%TO.N,VBUS*%
X95622400Y-96469200D03*
%TO.P,D1,2,A*%
%TO.N,Net-(D1-A)*%
X97722400Y-96469200D03*
%TD*%
D20*
%TO.P,C3,1*%
%TO.N,VBUS*%
X94081600Y-97244200D03*
%TO.P,C3,2*%
%TO.N,GND*%
X94081600Y-95694200D03*
%TD*%
D21*
%TO.P,C8,1*%
%TO.N,+3V3*%
X86360000Y-97393800D03*
%TO.P,C8,2*%
%TO.N,GND*%
X86360000Y-95493800D03*
%TD*%
D13*
%TO.P,C7,1*%
%TO.N,+1V1*%
X107806600Y-96621600D03*
%TO.P,C7,2*%
%TO.N,GND*%
X106256600Y-96621600D03*
%TD*%
D22*
%TO.P,Y1,1,1*%
%TO.N,Net-(C2-Pad1)*%
X121495999Y-101410399D03*
%TO.P,Y1,2,2*%
%TO.N,GND*%
X119295999Y-101410399D03*
%TO.P,Y1,3,3*%
%TO.N,Net-(U3-XIN)*%
X119295999Y-103110399D03*
%TO.P,Y1,4,4*%
%TO.N,GND*%
X121495999Y-103110399D03*
%TD*%
D13*
%TO.P,C2,1*%
%TO.N,Net-(C2-Pad1)*%
X121272600Y-99669600D03*
%TO.P,C2,2*%
%TO.N,GND*%
X119722600Y-99669600D03*
%TD*%
D23*
%TO.P,U3,1,IOVDD*%
%TO.N,+3V3*%
X110900000Y-103437500D03*
%TO.P,U3,2,GPIO0*%
%TO.N,unconnected-(U3-GPIO0-Pad2)*%
X111300000Y-103437500D03*
%TO.P,U3,3,GPIO1*%
%TO.N,unconnected-(U3-GPIO1-Pad3)*%
X111700000Y-103437500D03*
%TO.P,U3,4,GPIO2*%
%TO.N,unconnected-(U3-GPIO2-Pad4)*%
X112100000Y-103437500D03*
%TO.P,U3,5,GPIO3*%
%TO.N,unconnected-(U3-GPIO3-Pad5)*%
X112500000Y-103437500D03*
%TO.P,U3,6,GPIO4*%
%TO.N,UART_TX*%
X112900000Y-103437500D03*
%TO.P,U3,7,GPIO5*%
%TO.N,UART_RX*%
X113300000Y-103437500D03*
%TO.P,U3,8,GPIO6*%
%TO.N,unconnected-(U3-GPIO6-Pad8)*%
X113700000Y-103437500D03*
%TO.P,U3,9,GPIO7*%
%TO.N,PRS_OUT*%
X114100000Y-103437500D03*
%TO.P,U3,10,IOVDD*%
%TO.N,+3V3*%
X114500000Y-103437500D03*
%TO.P,U3,11,GPIO8*%
%TO.N,unconnected-(U3-GPIO8-Pad11)*%
X114900000Y-103437500D03*
%TO.P,U3,12,GPIO9*%
%TO.N,unconnected-(U3-GPIO9-Pad12)*%
X115300000Y-103437500D03*
%TO.P,U3,13,GPIO10*%
%TO.N,unconnected-(U3-GPIO10-Pad13)*%
X115700000Y-103437500D03*
%TO.P,U3,14,GPIO11*%
%TO.N,unconnected-(U3-GPIO11-Pad14)*%
X116100000Y-103437500D03*
D24*
%TO.P,U3,15,GPIO12*%
%TO.N,unconnected-(U3-GPIO12-Pad15)*%
X116937500Y-102600000D03*
%TO.P,U3,16,GPIO13*%
%TO.N,unconnected-(U3-GPIO13-Pad16)*%
X116937500Y-102200000D03*
%TO.P,U3,17,GPIO14*%
%TO.N,unconnected-(U3-GPIO14-Pad17)*%
X116937500Y-101800000D03*
%TO.P,U3,18,GPIO15*%
%TO.N,unconnected-(U3-GPIO15-Pad18)*%
X116937500Y-101400000D03*
%TO.P,U3,19,TESTEN*%
%TO.N,GND*%
X116937500Y-101000000D03*
%TO.P,U3,20,XIN*%
%TO.N,Net-(U3-XIN)*%
X116937500Y-100600000D03*
%TO.P,U3,21,XOUT*%
%TO.N,Net-(U3-XOUT)*%
X116937500Y-100200000D03*
%TO.P,U3,22,IOVDD*%
%TO.N,+3V3*%
X116937500Y-99800000D03*
%TO.P,U3,23,DVDD*%
%TO.N,+1V1*%
X116937500Y-99400000D03*
%TO.P,U3,24,SWCLK*%
%TO.N,unconnected-(U3-SWCLK-Pad24)*%
X116937500Y-99000000D03*
%TO.P,U3,25,SWD*%
%TO.N,unconnected-(U3-SWD-Pad25)*%
X116937500Y-98600000D03*
%TO.P,U3,26,RUN*%
%TO.N,Net-(U3-RUN)*%
X116937500Y-98200000D03*
%TO.P,U3,27,GPIO16*%
%TO.N,RGB_DIN*%
X116937500Y-97800000D03*
%TO.P,U3,28,GPIO17*%
%TO.N,unconnected-(U3-GPIO17-Pad28)*%
X116937500Y-97400000D03*
D23*
%TO.P,U3,29,GPIO18*%
%TO.N,unconnected-(U3-GPIO18-Pad29)*%
X116100000Y-96562500D03*
%TO.P,U3,30,GPIO19*%
%TO.N,unconnected-(U3-GPIO19-Pad30)*%
X115700000Y-96562500D03*
%TO.P,U3,31,GPIO20*%
%TO.N,unconnected-(U3-GPIO20-Pad31)*%
X115300000Y-96562500D03*
%TO.P,U3,32,GPIO21*%
%TO.N,unconnected-(U3-GPIO21-Pad32)*%
X114900000Y-96562500D03*
%TO.P,U3,33,IOVDD*%
%TO.N,+3V3*%
X114500000Y-96562500D03*
%TO.P,U3,34,GPIO22*%
%TO.N,unconnected-(U3-GPIO22-Pad34)*%
X114100000Y-96562500D03*
%TO.P,U3,35,GPIO23*%
%TO.N,unconnected-(U3-GPIO23-Pad35)*%
X113700000Y-96562500D03*
%TO.P,U3,36,GPIO24*%
%TO.N,unconnected-(U3-GPIO24-Pad36)*%
X113300000Y-96562500D03*
%TO.P,U3,37,GPIO25*%
%TO.N,unconnected-(U3-GPIO25-Pad37)*%
X112900000Y-96562500D03*
%TO.P,U3,38,GPIO26_ADC0*%
%TO.N,unconnected-(U3-GPIO26_ADC0-Pad38)*%
X112500000Y-96562500D03*
%TO.P,U3,39,GPIO27_ADC1*%
%TO.N,unconnected-(U3-GPIO27_ADC1-Pad39)*%
X112100000Y-96562500D03*
%TO.P,U3,40,GPIO28_ADC2*%
%TO.N,unconnected-(U3-GPIO28_ADC2-Pad40)*%
X111700000Y-96562500D03*
%TO.P,U3,41,GPIO29_ADC3*%
%TO.N,unconnected-(U3-GPIO29_ADC3-Pad41)*%
X111300000Y-96562500D03*
%TO.P,U3,42,IOVDD*%
%TO.N,+3V3*%
X110900000Y-96562500D03*
D24*
%TO.P,U3,43,ADC_AVDD*%
X110062500Y-97400000D03*
%TO.P,U3,44,VREG_IN*%
X110062500Y-97800000D03*
%TO.P,U3,45,VREG_VOUT*%
%TO.N,+1V1*%
X110062500Y-98200000D03*
%TO.P,U3,46,USB_DM*%
%TO.N,Net-(U3-USB_DM)*%
X110062500Y-98600000D03*
%TO.P,U3,47,USB_DP*%
%TO.N,Net-(U3-USB_DP)*%
X110062500Y-99000000D03*
%TO.P,U3,48,USB_VDD*%
%TO.N,+3V3*%
X110062500Y-99400000D03*
%TO.P,U3,49,IOVDD*%
X110062500Y-99800000D03*
%TO.P,U3,50,DVDD*%
%TO.N,+1V1*%
X110062500Y-100200000D03*
%TO.P,U3,51,QSPI_SD3*%
%TO.N,/QSPI_SD3*%
X110062500Y-100600000D03*
%TO.P,U3,52,QSPI_SCLK*%
%TO.N,QSPI_SCLK*%
X110062500Y-101000000D03*
%TO.P,U3,53,QSPI_SD0*%
%TO.N,/QSPI_SD0*%
X110062500Y-101400000D03*
%TO.P,U3,54,QSPI_SD2*%
%TO.N,/QSPI_SD2*%
X110062500Y-101800000D03*
%TO.P,U3,55,QSPI_SD1*%
%TO.N,/QSPI_SD1*%
X110062500Y-102200000D03*
%TO.P,U3,56,QSPI_SS*%
%TO.N,QSPI_SS*%
X110062500Y-102600000D03*
D25*
%TO.P,U3,57,GND*%
%TO.N,GND*%
X112225000Y-101275000D03*
X113500000Y-101275000D03*
X114775000Y-101275000D03*
X112225000Y-100000000D03*
X113500000Y-100000000D03*
D26*
X113500000Y-100000000D03*
D25*
X114775000Y-100000000D03*
X112225000Y-98725000D03*
X113500000Y-98725000D03*
X114775000Y-98725000D03*
%TD*%
D27*
%TO.P,U2,1,VIN*%
%TO.N,VBUS*%
X90717800Y-97383600D03*
%TO.P,U2,2,GND*%
%TO.N,GND*%
X90717800Y-96433600D03*
%TO.P,U2,3,EN*%
%TO.N,VBUS*%
X90717800Y-95483600D03*
%TO.P,U2,4,NC*%
%TO.N,unconnected-(U2-NC-Pad4)*%
X88442800Y-95483600D03*
%TO.P,U2,5,VOUT*%
%TO.N,+3V3*%
X88442800Y-97383600D03*
%TD*%
D12*
%TO.P,C14,1*%
%TO.N,+3V3*%
X115349800Y-95097600D03*
%TO.P,C14,2*%
%TO.N,GND*%
X116899800Y-95097600D03*
%TD*%
D28*
%TO.P,J2,A1,GND_A*%
%TO.N,GND*%
X97249999Y-98514999D03*
%TO.P,J2,A4,VBUS_A*%
%TO.N,Net-(D1-A)*%
X98749999Y-98514999D03*
%TO.P,J2,A5,CC1*%
%TO.N,Net-(J2-CC1)*%
X99249999Y-98514999D03*
%TO.P,J2,A6,DP1*%
%TO.N,USB_D+*%
X99749999Y-98514999D03*
%TO.P,J2,A7,DN1*%
%TO.N,USB_D-*%
X100249999Y-98514999D03*
%TO.P,J2,A8,SBU1*%
%TO.N,unconnected-(J2-SBU1-PadA8)*%
X100749999Y-98514999D03*
%TO.P,J2,A9,VBUS_A*%
%TO.N,Net-(D1-A)*%
X101249999Y-98514999D03*
%TO.P,J2,A12,GND_A*%
%TO.N,GND*%
X102749999Y-98514999D03*
%TO.P,J2,B1,GND_B*%
X102749999Y-101484999D03*
%TO.P,J2,B4,VBUS_B*%
%TO.N,Net-(D1-A)*%
X101249999Y-101484999D03*
%TO.P,J2,B5,CC2*%
%TO.N,Net-(J2-CC2)*%
X100749999Y-101484999D03*
%TO.P,J2,B6,DP2*%
%TO.N,USB_D+*%
X100249999Y-101484999D03*
%TO.P,J2,B7,DN2*%
%TO.N,USB_D-*%
X99749999Y-101484999D03*
%TO.P,J2,B8,SBU2*%
%TO.N,unconnected-(J2-SBU2-PadB8)*%
X99249999Y-101484999D03*
%TO.P,J2,B9,VBUS_B*%
%TO.N,Net-(D1-A)*%
X98749999Y-101484999D03*
%TO.P,J2,B12,GND_B*%
%TO.N,GND*%
X97249999Y-101484999D03*
D29*
%TO.P,J2,S1,SHIELD*%
X95999999Y-98569999D03*
%TO.P,J2,S2,SHIELD*%
X103999999Y-98569999D03*
%TO.P,J2,S3,SHIELD*%
X95999999Y-101429999D03*
%TO.P,J2,S4,SHIELD*%
X103999999Y-101429999D03*
%TD*%
D12*
%TO.P,C5,1*%
%TO.N,+1V1*%
X119722600Y-95097600D03*
%TO.P,C5,2*%
%TO.N,GND*%
X121272600Y-95097600D03*
%TD*%
D13*
%TO.P,C10,1*%
%TO.N,+3V3*%
X107806600Y-95097600D03*
%TO.P,C10,2*%
%TO.N,GND*%
X106256600Y-95097600D03*
%TD*%
D30*
%TO.P,J1,1,Pin_1*%
%TO.N,PRS_OUT*%
X83599999Y-102539999D03*
D31*
%TO.P,J1,2,Pin_2*%
%TO.N,UART_RX*%
X83599999Y-101269999D03*
%TO.P,J1,3,Pin_3*%
%TO.N,UART_TX*%
X83599999Y-99999999D03*
%TO.P,J1,4,Pin_4*%
%TO.N,GND*%
X83599999Y-98729999D03*
%TO.P,J1,5,Pin_5*%
%TO.N,VBUS*%
X83599999Y-97459999D03*
%TD*%
D32*
%TO.N,RGB_DIN*%
X116941600Y-96570800D03*
%TO.N,GND*%
X110192300Y-103733600D03*
X79200000Y-102006400D03*
X105105200Y-95097600D03*
X102750000Y-100000000D03*
X79200000Y-96012000D03*
X92557600Y-98298000D03*
X87477600Y-103911400D03*
X112725200Y-95097600D03*
X87284600Y-96418400D03*
X105054400Y-103073200D03*
X118008400Y-95097600D03*
X122377200Y-104902000D03*
X97250000Y-100000000D03*
X122377200Y-95097600D03*
X105105200Y-99415600D03*
X122377200Y-96200498D03*
X95046800Y-95022100D03*
X117043200Y-103530400D03*
X117805200Y-104902000D03*
X105105200Y-96618835D03*
X79200000Y-103987600D03*
X79200000Y-97993200D03*
X105112510Y-100434692D03*
X118845922Y-100278522D03*
X89483400Y-96433600D03*
%TO.N,+3V3*%
X123545600Y-102450000D03*
D33*
%TO.N,+1V1*%
X111048800Y-98907600D03*
D32*
X107031750Y-101299050D03*
X119735600Y-94199500D03*
D33*
X115519200Y-97999500D03*
D32*
%TO.N,PRS_OUT*%
X114399875Y-105790440D03*
%TO.N,UART_RX*%
X113507128Y-105331117D03*
%TO.N,UART_TX*%
X112869786Y-104561182D03*
%TO.N,USB_D+*%
X99822000Y-95656400D03*
X100330000Y-103124000D03*
%TO.N,USB_D-*%
X101142800Y-96926400D03*
X99445916Y-102657741D03*
%TD*%
D34*
%TO.N,GND*%
X105112510Y-100434692D02*
X106253508Y-100434692D01*
X106253508Y-100434692D02*
X106256600Y-100431600D01*
%TO.N,+3V3*%
X111819800Y-104902000D02*
X110900000Y-103982200D01*
X110900000Y-103982200D02*
X110900000Y-103437500D01*
%TO.N,Net-(C2-Pad1)*%
X121272600Y-99669600D02*
X121272600Y-101187000D01*
X121272600Y-101187000D02*
X121496000Y-101410400D01*
%TO.N,GND*%
X121272600Y-103333800D02*
X121272600Y-104902000D01*
%TO.N,+3V3*%
X118875000Y-97469200D02*
X119722600Y-96621600D01*
X118875000Y-98694514D02*
X118875000Y-97469200D01*
X117769514Y-99800000D02*
X118875000Y-98694514D01*
X116937500Y-99800000D02*
X117769514Y-99800000D01*
%TO.N,+1V1*%
X117603828Y-99400000D02*
X116937500Y-99400000D01*
X118475000Y-96339686D02*
X118475000Y-98528828D01*
X118475000Y-98528828D02*
X117603828Y-99400000D01*
X119735600Y-95079086D02*
X118475000Y-96339686D01*
X119735600Y-94199500D02*
X119735600Y-95079086D01*
%TO.N,Net-(U3-RUN)*%
X81827400Y-93922600D02*
X80800000Y-94950000D01*
X118255800Y-93922600D02*
X81827400Y-93922600D01*
X118075000Y-96174000D02*
X118708400Y-95540600D01*
X118708400Y-94375200D02*
X118255800Y-93922600D01*
X118075000Y-97760660D02*
X118075000Y-96174000D01*
X118708400Y-95540600D02*
X118708400Y-94375200D01*
X117635661Y-98200000D02*
X118075000Y-97760660D01*
X116937500Y-98200000D02*
X117635661Y-98200000D01*
%TO.N,RGB_DIN*%
X117675000Y-96847000D02*
X117398800Y-96570800D01*
X117675000Y-97594975D02*
X117675000Y-96847000D01*
X117398800Y-96570800D02*
X116941600Y-96570800D01*
X117469975Y-97800000D02*
X117675000Y-97594975D01*
X116937500Y-97800000D02*
X117469975Y-97800000D01*
%TO.N,Net-(U3-XIN)*%
X118205200Y-102787400D02*
X118528200Y-103110400D01*
X118528200Y-103110400D02*
X119296000Y-103110400D01*
X116937500Y-100600000D02*
X117795800Y-100600000D01*
X117795800Y-100600000D02*
X118205200Y-101009400D01*
X119722600Y-103537000D02*
X119296000Y-103110400D01*
X119722600Y-104902000D02*
X119722600Y-103537000D01*
X118205200Y-101009400D02*
X118205200Y-102787400D01*
%TO.N,GND*%
X97231200Y-100025200D02*
X97250000Y-100006400D01*
X121272600Y-96621600D02*
X121956098Y-96621600D01*
X86112800Y-103911400D02*
X87477600Y-103911400D01*
X117805200Y-101175086D02*
X117630114Y-101000000D01*
D35*
X94247000Y-95694200D02*
X94919100Y-95022100D01*
D34*
X118845922Y-100960322D02*
X119296000Y-101410400D01*
X96000000Y-102717400D02*
X96000000Y-101430000D01*
X121496000Y-103110400D02*
X121272600Y-103333800D01*
X117043200Y-103530400D02*
X117805200Y-102768400D01*
X102768400Y-99974400D02*
X102750000Y-99956000D01*
X96000000Y-101430000D02*
X97195000Y-101430000D01*
X121272600Y-104902000D02*
X122377200Y-104902000D01*
D35*
X96000000Y-98570000D02*
X97195000Y-98570000D01*
D34*
X116696600Y-104902000D02*
X117805200Y-104902000D01*
X110192300Y-104824500D02*
X110269800Y-104902000D01*
D35*
X104000000Y-98570000D02*
X102805000Y-98570000D01*
D34*
X121956098Y-96621600D02*
X122377200Y-96200498D01*
D35*
X102750000Y-98515000D02*
X102750000Y-101485000D01*
D34*
X97250000Y-100044000D02*
X97231200Y-100025200D01*
X105748600Y-99415600D02*
X106256600Y-98907600D01*
X111616600Y-95097600D02*
X112725200Y-95097600D01*
D35*
X94919100Y-95022100D02*
X95046800Y-95022100D01*
D34*
X117805200Y-102768400D02*
X117805200Y-101175086D01*
D35*
X102805000Y-101430000D02*
X102750000Y-101485000D01*
X89483400Y-96433600D02*
X90717800Y-96433600D01*
D34*
X97195000Y-101430000D02*
X97250000Y-101485000D01*
X79200000Y-97993200D02*
X79200000Y-99050000D01*
X121272600Y-95097600D02*
X122377200Y-95097600D01*
X102750000Y-99992800D02*
X102768400Y-99974400D01*
X117630114Y-101000000D02*
X116937500Y-101000000D01*
D35*
X104000000Y-101430000D02*
X102805000Y-101430000D01*
D34*
X79200000Y-103987600D02*
X79200000Y-105050000D01*
D35*
X94081600Y-95694200D02*
X94247000Y-95694200D01*
D34*
X95644200Y-103073200D02*
X96000000Y-102717400D01*
X103999800Y-103073200D02*
X105054400Y-103073200D01*
X79200000Y-96012000D02*
X79200000Y-94950000D01*
X119454844Y-99669600D02*
X119722600Y-99669600D01*
X116899800Y-95097600D02*
X118008400Y-95097600D01*
X118845922Y-100278522D02*
X118845922Y-100960322D01*
X118845922Y-100278522D02*
X119454844Y-99669600D01*
D35*
X97250000Y-98515000D02*
X97250000Y-101485000D01*
X97195000Y-98570000D02*
X97250000Y-98515000D01*
D34*
X92557600Y-98298000D02*
X92557600Y-97244200D01*
X105105200Y-96618835D02*
X106253835Y-96618835D01*
X105105200Y-95097600D02*
X106256600Y-95097600D01*
D35*
X102805000Y-98570000D02*
X102750000Y-98515000D01*
D34*
X110192300Y-103733600D02*
X110192300Y-104824500D01*
X106253835Y-96618835D02*
X106256600Y-96621600D01*
X105105200Y-99415600D02*
X105748600Y-99415600D01*
D35*
X87284600Y-96418400D02*
X86360000Y-95493800D01*
D34*
X79200000Y-102006400D02*
X79200000Y-100950000D01*
%TO.N,Net-(C2-Pad1)*%
X121322600Y-98145600D02*
X121322600Y-99619600D01*
X121322600Y-99619600D02*
X121272600Y-99669600D01*
%TO.N,VBUS*%
X90717800Y-95483600D02*
X91419600Y-95483600D01*
X91680300Y-95744300D02*
X91680300Y-97143300D01*
D35*
X93167200Y-99110800D02*
X94081600Y-98196400D01*
X90779600Y-99110800D02*
X93167200Y-99110800D01*
X83600000Y-97460000D02*
X84561000Y-97460000D01*
X84561000Y-97460000D02*
X86211800Y-99110800D01*
D34*
X91419600Y-95483600D02*
X91680300Y-95744300D01*
X91440000Y-97383600D02*
X90717800Y-97383600D01*
X91680300Y-97143300D02*
X91440000Y-97383600D01*
D35*
X86211800Y-99110800D02*
X90779600Y-99110800D01*
X94081600Y-98196400D02*
X94081600Y-97244200D01*
X90717800Y-99049000D02*
X90717800Y-97383600D01*
X90779600Y-99110800D02*
X90717800Y-99049000D01*
X94081600Y-97244200D02*
X94856600Y-96469200D01*
X94856600Y-96469200D02*
X95622400Y-96469200D01*
D34*
%TO.N,+3V3*%
X110062500Y-99800000D02*
X109143200Y-99800000D01*
X114500000Y-104255400D02*
X114500000Y-103437500D01*
X109653058Y-97800000D02*
X108915200Y-97062142D01*
X96469200Y-96570800D02*
X94640400Y-98399600D01*
X114500000Y-96562500D02*
X114500000Y-97396800D01*
X110900000Y-96562500D02*
X110900000Y-97396400D01*
X88442800Y-97383600D02*
X86370200Y-97383600D01*
X114503200Y-102700000D02*
X110933200Y-102700000D01*
X108915200Y-94843600D02*
X108394200Y-94322600D01*
X84425400Y-94945200D02*
X84425000Y-94945600D01*
X110900000Y-97396400D02*
X110896400Y-97400000D01*
X96469200Y-94322600D02*
X96469200Y-96570800D01*
X114500000Y-95947400D02*
X115349800Y-95097600D01*
X110900000Y-96562500D02*
X110900000Y-95931000D01*
X110900000Y-103437500D02*
X110900000Y-102666800D01*
X86360000Y-97393800D02*
X85557400Y-97393800D01*
X96469200Y-94322600D02*
X92557600Y-94322600D01*
X115768229Y-97400000D02*
X116200000Y-97831771D01*
X114500000Y-102703200D02*
X114503200Y-102700000D01*
X110062500Y-99400000D02*
X108990314Y-99400000D01*
X108915200Y-97062142D02*
X108915200Y-95097600D01*
X115689200Y-102700000D02*
X114503200Y-102700000D01*
X85242400Y-94945200D02*
X84425400Y-94945200D01*
X108990314Y-99647114D02*
X108990314Y-99400000D01*
X85557400Y-97393800D02*
X85242400Y-97078800D01*
X115146600Y-104902000D02*
X114500000Y-104255400D01*
X123545600Y-104851200D02*
X122529600Y-105867200D01*
X110062500Y-97800000D02*
X109653058Y-97800000D01*
X110896400Y-97586800D02*
X110896400Y-97400000D01*
X92557600Y-95694200D02*
X92557600Y-94322600D01*
X116111800Y-105867200D02*
X115146600Y-104902000D01*
X85242400Y-94945200D02*
X85865000Y-94322600D01*
X108915200Y-95097600D02*
X107806600Y-95097600D01*
X110933200Y-102700000D02*
X110900000Y-102666800D01*
X94208600Y-100101400D02*
X93312800Y-100101400D01*
X116200000Y-99822000D02*
X116200000Y-102189200D01*
X110062500Y-97400000D02*
X110896400Y-97400000D01*
X94640400Y-98399600D02*
X94640400Y-99669600D01*
X114500000Y-96562500D02*
X114500000Y-95947400D01*
X110900000Y-99673200D02*
X110626800Y-99400000D01*
X110683200Y-97800000D02*
X110896400Y-97586800D01*
X110900000Y-95931000D02*
X110066600Y-95097600D01*
X110062500Y-97800000D02*
X110683200Y-97800000D01*
X108394200Y-94322600D02*
X96469200Y-94322600D01*
X122529600Y-105867200D02*
X116111800Y-105867200D01*
X116937500Y-99800000D02*
X116222000Y-99800000D01*
X110896400Y-97400000D02*
X114503200Y-97400000D01*
X109143200Y-99800000D02*
X108990314Y-99647114D01*
X114503200Y-97400000D02*
X115768229Y-97400000D01*
X85865000Y-94322600D02*
X92557600Y-94322600D01*
X108990314Y-99400000D02*
X108497914Y-98907600D01*
X110626800Y-99400000D02*
X110062500Y-99400000D01*
X108915200Y-95097600D02*
X108915200Y-94843600D01*
X116200000Y-97831771D02*
X116200000Y-99822000D01*
X110900000Y-102666800D02*
X110900000Y-99673200D01*
X114500000Y-97396800D02*
X114503200Y-97400000D01*
X123545600Y-102450000D02*
X123545600Y-104851200D01*
X85242400Y-97078800D02*
X85242400Y-94945200D01*
X116222000Y-99800000D02*
X116200000Y-99822000D01*
X94640400Y-99669600D02*
X94208600Y-100101400D01*
X108497914Y-98907600D02*
X107806600Y-98907600D01*
X114500000Y-103437500D02*
X114500000Y-102703200D01*
X116200000Y-102189200D02*
X115689200Y-102700000D01*
X86370200Y-97383600D02*
X86360000Y-97393800D01*
%TO.N,+1V1*%
X107806600Y-100524200D02*
X107806600Y-100431600D01*
X107031750Y-101299050D02*
X107806600Y-100524200D01*
X110062500Y-98200000D02*
X111045200Y-98200000D01*
X107908972Y-96621600D02*
X107806600Y-96621600D01*
X119722600Y-94212500D02*
X119722600Y-95097600D01*
X111045200Y-98200000D02*
X111445200Y-97800000D01*
X108634800Y-100200000D02*
X108403200Y-100431600D01*
X109487372Y-98200000D02*
X107908972Y-96621600D01*
X119735600Y-94199500D02*
X119722600Y-94212500D01*
X111048800Y-98203600D02*
X111045200Y-98200000D01*
X108403200Y-100431600D02*
X107806600Y-100431600D01*
X110062500Y-98200000D02*
X109487372Y-98200000D01*
X111048800Y-98907600D02*
X111048800Y-98203600D01*
X115319700Y-97800000D02*
X115519200Y-97999500D01*
X111445200Y-97800000D02*
X115319700Y-97800000D01*
X110062500Y-100200000D02*
X108634800Y-100200000D01*
%TO.N,PRS_OUT*%
X114399875Y-105790440D02*
X114399875Y-105372737D01*
X114399875Y-105372737D02*
X114396600Y-105369462D01*
X114100000Y-104905200D02*
X114100000Y-103437500D01*
X114396600Y-105201800D02*
X114100000Y-104905200D01*
X114396600Y-105369462D02*
X114396600Y-105201800D01*
%TO.N,UART_RX*%
X113300000Y-104001446D02*
X113300000Y-103437500D01*
X113507128Y-105331117D02*
X113569786Y-105268459D01*
X113569786Y-104271232D02*
X113300000Y-104001446D01*
X113569786Y-105268459D02*
X113569786Y-104271232D01*
%TO.N,UART_TX*%
X112869786Y-104561182D02*
X112900000Y-104530968D01*
X112900000Y-104530968D02*
X112900000Y-103437500D01*
%TO.N,QSPI_SS*%
X82296000Y-103073200D02*
X82296000Y-96215200D01*
X110062500Y-102600000D02*
X109689201Y-102600000D01*
X109689201Y-102600000D02*
X109492800Y-102796401D01*
X84612800Y-103733600D02*
X82956400Y-103733600D01*
X84612800Y-103733600D02*
X84612800Y-104866600D01*
X109492800Y-104117200D02*
X107510000Y-106100000D01*
X84612800Y-104866600D02*
X84425000Y-105054400D01*
X85470600Y-106100000D02*
X84425000Y-105054400D01*
X82775000Y-95736200D02*
X82775000Y-94945600D01*
X84612800Y-100654800D02*
X84612800Y-103733600D01*
X85166200Y-100101400D02*
X86112800Y-100101400D01*
X82956400Y-103733600D02*
X82296000Y-103073200D01*
X107510000Y-106100000D02*
X85470600Y-106100000D01*
X82296000Y-96215200D02*
X82775000Y-95736200D01*
X109492800Y-102796401D02*
X109492800Y-104117200D01*
X84612800Y-100654800D02*
X85166200Y-100101400D01*
%TO.N,Net-(R1-Pad2)*%
X82775000Y-105054400D02*
X80804400Y-105054400D01*
X80800000Y-100950000D02*
X80800000Y-105050000D01*
X80804400Y-105054400D02*
X80800000Y-105050000D01*
%TO.N,Net-(U3-XOUT)*%
X119372600Y-98762600D02*
X119372600Y-98445600D01*
X117935200Y-100200000D02*
X119372600Y-98762600D01*
X116937500Y-100200000D02*
X117935200Y-100200000D01*
X119372600Y-98445600D02*
X119672600Y-98145600D01*
%TO.N,Net-(J2-CC1)*%
X96977200Y-96824800D02*
X96977200Y-96146118D01*
X99250000Y-96760800D02*
X99250000Y-98515000D01*
X96977200Y-96146118D02*
X97365318Y-95758000D01*
X97294200Y-103073200D02*
X97993200Y-102374200D01*
X97993200Y-97840800D02*
X96977200Y-96824800D01*
X97993200Y-102374200D02*
X97993200Y-97840800D01*
X97365318Y-95758000D02*
X98247200Y-95758000D01*
X98247200Y-95758000D02*
X99250000Y-96760800D01*
%TO.N,Net-(U3-USB_DP)*%
X109156000Y-99000000D02*
X108149200Y-97993200D01*
X103174800Y-96978707D02*
X103174800Y-96012000D01*
X104298514Y-97396600D02*
X103592693Y-97396600D01*
X108149200Y-97993200D02*
X104895114Y-97993200D01*
X104895114Y-97993200D02*
X104298514Y-97396600D01*
X110062500Y-99000000D02*
X109156000Y-99000000D01*
X103174800Y-96012000D02*
X103999800Y-95187000D01*
X103999800Y-95187000D02*
X103999800Y-95097600D01*
X103592693Y-97396600D02*
X103174800Y-96978707D01*
%TO.N,USB_D+*%
X100145916Y-102939916D02*
X100330000Y-103124000D01*
X100250000Y-101485000D02*
X100250000Y-102419343D01*
X100145916Y-102523427D02*
X100145916Y-102939916D01*
X100330000Y-96164400D02*
X100838000Y-95656400D01*
X99750000Y-96744400D02*
X100330000Y-96164400D01*
X99822000Y-95656400D02*
X100330000Y-96164400D01*
X99750000Y-98515000D02*
X99750000Y-96744400D01*
X100838000Y-95656400D02*
X101791000Y-95656400D01*
X101791000Y-95656400D02*
X102349800Y-95097600D01*
X100250000Y-102419343D02*
X100145916Y-102523427D01*
%TO.N,Net-(U3-USB_DM)*%
X109321686Y-98600000D02*
X110062500Y-98600000D01*
X105060800Y-97593200D02*
X108314886Y-97593200D01*
X103999800Y-96621600D02*
X104089200Y-96621600D01*
X104089200Y-96621600D02*
X105060800Y-97593200D01*
X108314886Y-97593200D02*
X109321686Y-98600000D01*
%TO.N,Net-(U3-RUN)*%
X80800000Y-99050000D02*
X80800000Y-94950000D01*
%TO.N,/QSPI_SD1*%
X109092800Y-103951514D02*
X109092800Y-102630715D01*
X107344314Y-105700000D02*
X109092800Y-103951514D01*
X109092800Y-102630715D02*
X109523515Y-102200000D01*
X85318600Y-101371400D02*
X85012800Y-101677200D01*
X109523515Y-102200000D02*
X110062500Y-102200000D01*
X86294400Y-105700000D02*
X107344314Y-105700000D01*
X85012800Y-104418400D02*
X86294400Y-105700000D01*
X86112800Y-101371400D02*
X85318600Y-101371400D01*
X85012800Y-101677200D02*
X85012800Y-104418400D01*
%TO.N,/QSPI_SD2*%
X110062500Y-101800000D02*
X109357829Y-101800000D01*
X87261700Y-102641400D02*
X86112800Y-102641400D01*
X109357829Y-101800000D02*
X108692800Y-102465029D01*
X89920300Y-105300000D02*
X87261700Y-102641400D01*
X107178628Y-105300000D02*
X89920300Y-105300000D01*
X108692800Y-103785828D02*
X107178628Y-105300000D01*
X108692800Y-102465029D02*
X108692800Y-103785828D01*
%TO.N,/QSPI_SD0*%
X107012942Y-104900000D02*
X93774800Y-104900000D01*
X93312800Y-104438000D02*
X93312800Y-103911400D01*
X109192143Y-101400000D02*
X108292800Y-102299343D01*
X110062500Y-101400000D02*
X109192143Y-101400000D01*
X108292800Y-103620142D02*
X107012942Y-104900000D01*
X108292800Y-102299343D02*
X108292800Y-103620142D01*
X93774800Y-104900000D02*
X93312800Y-104438000D01*
%TO.N,QSPI_SCLK*%
X109026458Y-101000000D02*
X110062500Y-101000000D01*
X106847256Y-104500000D02*
X107892800Y-103454456D01*
X94488000Y-103664793D02*
X95323207Y-104500000D01*
X93312800Y-102641400D02*
X94107000Y-102641400D01*
X107892800Y-103454456D02*
X107892800Y-102133658D01*
X94488000Y-103022400D02*
X94488000Y-103664793D01*
X95323207Y-104500000D02*
X106847256Y-104500000D01*
X107892800Y-102133658D02*
X109026458Y-101000000D01*
X94107000Y-102641400D02*
X94488000Y-103022400D01*
%TO.N,/QSPI_SD3*%
X94259400Y-101371400D02*
X93312800Y-101371400D01*
X95488893Y-104100000D02*
X94888000Y-103499107D01*
X108860772Y-100600000D02*
X107492800Y-101967972D01*
X107492800Y-103288770D02*
X106681570Y-104100000D01*
X94888000Y-102000000D02*
X94259400Y-101371400D01*
X106681570Y-104100000D02*
X95488893Y-104100000D01*
X107492800Y-101967972D02*
X107492800Y-103288770D01*
X94888000Y-103499107D02*
X94888000Y-102000000D01*
X110062500Y-100600000D02*
X108860772Y-100600000D01*
%TO.N,USB_D-*%
X100250000Y-96810086D02*
X100638243Y-96421843D01*
X101784600Y-96056400D02*
X102349800Y-96621600D01*
X100638243Y-96421843D02*
X101003686Y-96056400D01*
X99750000Y-101485000D02*
X99800000Y-101535000D01*
X99800000Y-102303657D02*
X99445916Y-102657741D01*
X99800000Y-101535000D02*
X99800000Y-102303657D01*
X101142800Y-96926400D02*
X100638243Y-96421843D01*
X101003686Y-96056400D02*
X101784600Y-96056400D01*
X100250000Y-98515000D02*
X100250000Y-96810086D01*
%TO.N,Net-(J2-CC2)*%
X100750000Y-101485000D02*
X100750000Y-102477200D01*
X100750000Y-102477200D02*
X101346000Y-103073200D01*
X101346000Y-103073200D02*
X102349800Y-103073200D01*
D35*
%TO.N,Net-(D1-A)*%
X98247200Y-96469200D02*
X98750000Y-96972000D01*
X98750000Y-96972000D02*
X98750000Y-98515000D01*
X101250000Y-101485000D02*
X101250000Y-98515000D01*
X98750000Y-98515000D02*
X98750000Y-101485000D01*
X98750000Y-100000000D02*
X101250000Y-100000000D01*
X97722400Y-96469200D02*
X98247200Y-96469200D01*
%TD*%
M02*
