%TF.GenerationSoftware,KiCad,Pcbnew,(7.0.0)*%
%TF.CreationDate,2023-05-29T13:22:43-05:00*%
%TF.ProjectId,rp2040-radar-presense-sensor,72703230-3430-42d7-9261-6461722d7072,rev?*%
%TF.SameCoordinates,Original*%
%TF.FileFunction,Legend,Bot*%
%TF.FilePolarity,Positive*%
%FSLAX46Y46*%
G04 Gerber Fmt 4.6, Leading zero omitted, Abs format (unit mm)*
G04 Created by KiCad (PCBNEW (7.0.0)) date 2023-05-29 13:22:43*
%MOMM*%
%LPD*%
G01*
G04 APERTURE LIST*
%ADD10C,0.150000*%
%ADD11C,0.120000*%
G04 APERTURE END LIST*
D10*
X115636704Y-100367380D02*
X115636704Y-99367380D01*
X115636704Y-99843571D02*
X115065276Y-99843571D01*
X115065276Y-100367380D02*
X115065276Y-99367380D01*
X114112895Y-100367380D02*
X114589085Y-100367380D01*
X114589085Y-100367380D02*
X114589085Y-99367380D01*
X113779561Y-100367380D02*
X113779561Y-99367380D01*
X113208133Y-100367380D02*
X113636704Y-99795952D01*
X113208133Y-99367380D02*
X113779561Y-99938809D01*
X112779561Y-99986428D02*
X112017657Y-99986428D01*
X111065276Y-100367380D02*
X111541466Y-100367380D01*
X111541466Y-100367380D02*
X111541466Y-99367380D01*
X110731942Y-100367380D02*
X110731942Y-99367380D01*
X110731942Y-99367380D02*
X110493847Y-99367380D01*
X110493847Y-99367380D02*
X110350990Y-99415000D01*
X110350990Y-99415000D02*
X110255752Y-99510238D01*
X110255752Y-99510238D02*
X110208133Y-99605476D01*
X110208133Y-99605476D02*
X110160514Y-99795952D01*
X110160514Y-99795952D02*
X110160514Y-99938809D01*
X110160514Y-99938809D02*
X110208133Y-100129285D01*
X110208133Y-100129285D02*
X110255752Y-100224523D01*
X110255752Y-100224523D02*
X110350990Y-100319761D01*
X110350990Y-100319761D02*
X110493847Y-100367380D01*
X110493847Y-100367380D02*
X110731942Y-100367380D01*
X109779561Y-99462619D02*
X109731942Y-99415000D01*
X109731942Y-99415000D02*
X109636704Y-99367380D01*
X109636704Y-99367380D02*
X109398609Y-99367380D01*
X109398609Y-99367380D02*
X109303371Y-99415000D01*
X109303371Y-99415000D02*
X109255752Y-99462619D01*
X109255752Y-99462619D02*
X109208133Y-99557857D01*
X109208133Y-99557857D02*
X109208133Y-99653095D01*
X109208133Y-99653095D02*
X109255752Y-99795952D01*
X109255752Y-99795952D02*
X109827180Y-100367380D01*
X109827180Y-100367380D02*
X109208133Y-100367380D01*
X108350990Y-99700714D02*
X108350990Y-100367380D01*
X108589085Y-99319761D02*
X108827180Y-100034047D01*
X108827180Y-100034047D02*
X108208133Y-100034047D01*
X107303371Y-100367380D02*
X107874799Y-100367380D01*
X107589085Y-100367380D02*
X107589085Y-99367380D01*
X107589085Y-99367380D02*
X107684323Y-99510238D01*
X107684323Y-99510238D02*
X107779561Y-99605476D01*
X107779561Y-99605476D02*
X107874799Y-99653095D01*
X106684323Y-99367380D02*
X106589085Y-99367380D01*
X106589085Y-99367380D02*
X106493847Y-99415000D01*
X106493847Y-99415000D02*
X106446228Y-99462619D01*
X106446228Y-99462619D02*
X106398609Y-99557857D01*
X106398609Y-99557857D02*
X106350990Y-99748333D01*
X106350990Y-99748333D02*
X106350990Y-99986428D01*
X106350990Y-99986428D02*
X106398609Y-100176904D01*
X106398609Y-100176904D02*
X106446228Y-100272142D01*
X106446228Y-100272142D02*
X106493847Y-100319761D01*
X106493847Y-100319761D02*
X106589085Y-100367380D01*
X106589085Y-100367380D02*
X106684323Y-100367380D01*
X106684323Y-100367380D02*
X106779561Y-100319761D01*
X106779561Y-100319761D02*
X106827180Y-100272142D01*
X106827180Y-100272142D02*
X106874799Y-100176904D01*
X106874799Y-100176904D02*
X106922418Y-99986428D01*
X106922418Y-99986428D02*
X106922418Y-99748333D01*
X106922418Y-99748333D02*
X106874799Y-99557857D01*
X106874799Y-99557857D02*
X106827180Y-99462619D01*
X106827180Y-99462619D02*
X106779561Y-99415000D01*
X106779561Y-99415000D02*
X106684323Y-99367380D01*
X110423809Y-105367380D02*
X110423809Y-104367380D01*
X110423809Y-104367380D02*
X110185714Y-104367380D01*
X110185714Y-104367380D02*
X110042857Y-104415000D01*
X110042857Y-104415000D02*
X109947619Y-104510238D01*
X109947619Y-104510238D02*
X109900000Y-104605476D01*
X109900000Y-104605476D02*
X109852381Y-104795952D01*
X109852381Y-104795952D02*
X109852381Y-104938809D01*
X109852381Y-104938809D02*
X109900000Y-105129285D01*
X109900000Y-105129285D02*
X109947619Y-105224523D01*
X109947619Y-105224523D02*
X110042857Y-105319761D01*
X110042857Y-105319761D02*
X110185714Y-105367380D01*
X110185714Y-105367380D02*
X110423809Y-105367380D01*
X109042857Y-105319761D02*
X109138095Y-105367380D01*
X109138095Y-105367380D02*
X109328571Y-105367380D01*
X109328571Y-105367380D02*
X109423809Y-105319761D01*
X109423809Y-105319761D02*
X109471428Y-105224523D01*
X109471428Y-105224523D02*
X109471428Y-104843571D01*
X109471428Y-104843571D02*
X109423809Y-104748333D01*
X109423809Y-104748333D02*
X109328571Y-104700714D01*
X109328571Y-104700714D02*
X109138095Y-104700714D01*
X109138095Y-104700714D02*
X109042857Y-104748333D01*
X109042857Y-104748333D02*
X108995238Y-104843571D01*
X108995238Y-104843571D02*
X108995238Y-104938809D01*
X108995238Y-104938809D02*
X109471428Y-105034047D01*
X108614285Y-105319761D02*
X108519047Y-105367380D01*
X108519047Y-105367380D02*
X108328571Y-105367380D01*
X108328571Y-105367380D02*
X108233333Y-105319761D01*
X108233333Y-105319761D02*
X108185714Y-105224523D01*
X108185714Y-105224523D02*
X108185714Y-105176904D01*
X108185714Y-105176904D02*
X108233333Y-105081666D01*
X108233333Y-105081666D02*
X108328571Y-105034047D01*
X108328571Y-105034047D02*
X108471428Y-105034047D01*
X108471428Y-105034047D02*
X108566666Y-104986428D01*
X108566666Y-104986428D02*
X108614285Y-104891190D01*
X108614285Y-104891190D02*
X108614285Y-104843571D01*
X108614285Y-104843571D02*
X108566666Y-104748333D01*
X108566666Y-104748333D02*
X108471428Y-104700714D01*
X108471428Y-104700714D02*
X108328571Y-104700714D01*
X108328571Y-104700714D02*
X108233333Y-104748333D01*
X107757142Y-105367380D02*
X107757142Y-104700714D01*
X107757142Y-104367380D02*
X107804761Y-104415000D01*
X107804761Y-104415000D02*
X107757142Y-104462619D01*
X107757142Y-104462619D02*
X107709523Y-104415000D01*
X107709523Y-104415000D02*
X107757142Y-104367380D01*
X107757142Y-104367380D02*
X107757142Y-104462619D01*
X106852381Y-104700714D02*
X106852381Y-105510238D01*
X106852381Y-105510238D02*
X106900000Y-105605476D01*
X106900000Y-105605476D02*
X106947619Y-105653095D01*
X106947619Y-105653095D02*
X107042857Y-105700714D01*
X107042857Y-105700714D02*
X107185714Y-105700714D01*
X107185714Y-105700714D02*
X107280952Y-105653095D01*
X106852381Y-105319761D02*
X106947619Y-105367380D01*
X106947619Y-105367380D02*
X107138095Y-105367380D01*
X107138095Y-105367380D02*
X107233333Y-105319761D01*
X107233333Y-105319761D02*
X107280952Y-105272142D01*
X107280952Y-105272142D02*
X107328571Y-105176904D01*
X107328571Y-105176904D02*
X107328571Y-104891190D01*
X107328571Y-104891190D02*
X107280952Y-104795952D01*
X107280952Y-104795952D02*
X107233333Y-104748333D01*
X107233333Y-104748333D02*
X107138095Y-104700714D01*
X107138095Y-104700714D02*
X106947619Y-104700714D01*
X106947619Y-104700714D02*
X106852381Y-104748333D01*
X106376190Y-104700714D02*
X106376190Y-105367380D01*
X106376190Y-104795952D02*
X106328571Y-104748333D01*
X106328571Y-104748333D02*
X106233333Y-104700714D01*
X106233333Y-104700714D02*
X106090476Y-104700714D01*
X106090476Y-104700714D02*
X105995238Y-104748333D01*
X105995238Y-104748333D02*
X105947619Y-104843571D01*
X105947619Y-104843571D02*
X105947619Y-105367380D01*
X105090476Y-105319761D02*
X105185714Y-105367380D01*
X105185714Y-105367380D02*
X105376190Y-105367380D01*
X105376190Y-105367380D02*
X105471428Y-105319761D01*
X105471428Y-105319761D02*
X105519047Y-105224523D01*
X105519047Y-105224523D02*
X105519047Y-104843571D01*
X105519047Y-104843571D02*
X105471428Y-104748333D01*
X105471428Y-104748333D02*
X105376190Y-104700714D01*
X105376190Y-104700714D02*
X105185714Y-104700714D01*
X105185714Y-104700714D02*
X105090476Y-104748333D01*
X105090476Y-104748333D02*
X105042857Y-104843571D01*
X105042857Y-104843571D02*
X105042857Y-104938809D01*
X105042857Y-104938809D02*
X105519047Y-105034047D01*
X104185714Y-105367380D02*
X104185714Y-104367380D01*
X104185714Y-105319761D02*
X104280952Y-105367380D01*
X104280952Y-105367380D02*
X104471428Y-105367380D01*
X104471428Y-105367380D02*
X104566666Y-105319761D01*
X104566666Y-105319761D02*
X104614285Y-105272142D01*
X104614285Y-105272142D02*
X104661904Y-105176904D01*
X104661904Y-105176904D02*
X104661904Y-104891190D01*
X104661904Y-104891190D02*
X104614285Y-104795952D01*
X104614285Y-104795952D02*
X104566666Y-104748333D01*
X104566666Y-104748333D02*
X104471428Y-104700714D01*
X104471428Y-104700714D02*
X104280952Y-104700714D01*
X104280952Y-104700714D02*
X104185714Y-104748333D01*
X102776190Y-104843571D02*
X102633333Y-104891190D01*
X102633333Y-104891190D02*
X102585714Y-104938809D01*
X102585714Y-104938809D02*
X102538095Y-105034047D01*
X102538095Y-105034047D02*
X102538095Y-105176904D01*
X102538095Y-105176904D02*
X102585714Y-105272142D01*
X102585714Y-105272142D02*
X102633333Y-105319761D01*
X102633333Y-105319761D02*
X102728571Y-105367380D01*
X102728571Y-105367380D02*
X103109523Y-105367380D01*
X103109523Y-105367380D02*
X103109523Y-104367380D01*
X103109523Y-104367380D02*
X102776190Y-104367380D01*
X102776190Y-104367380D02*
X102680952Y-104415000D01*
X102680952Y-104415000D02*
X102633333Y-104462619D01*
X102633333Y-104462619D02*
X102585714Y-104557857D01*
X102585714Y-104557857D02*
X102585714Y-104653095D01*
X102585714Y-104653095D02*
X102633333Y-104748333D01*
X102633333Y-104748333D02*
X102680952Y-104795952D01*
X102680952Y-104795952D02*
X102776190Y-104843571D01*
X102776190Y-104843571D02*
X103109523Y-104843571D01*
X102204761Y-104700714D02*
X101966666Y-105367380D01*
X101728571Y-104700714D02*
X101966666Y-105367380D01*
X101966666Y-105367380D02*
X102061904Y-105605476D01*
X102061904Y-105605476D02*
X102109523Y-105653095D01*
X102109523Y-105653095D02*
X102204761Y-105700714D01*
X101347618Y-105272142D02*
X101299999Y-105319761D01*
X101299999Y-105319761D02*
X101347618Y-105367380D01*
X101347618Y-105367380D02*
X101395237Y-105319761D01*
X101395237Y-105319761D02*
X101347618Y-105272142D01*
X101347618Y-105272142D02*
X101347618Y-105367380D01*
X101347618Y-104748333D02*
X101299999Y-104795952D01*
X101299999Y-104795952D02*
X101347618Y-104843571D01*
X101347618Y-104843571D02*
X101395237Y-104795952D01*
X101395237Y-104795952D02*
X101347618Y-104748333D01*
X101347618Y-104748333D02*
X101347618Y-104843571D01*
X100271428Y-105367380D02*
X100271428Y-104367380D01*
X100271428Y-104367380D02*
X99938095Y-105081666D01*
X99938095Y-105081666D02*
X99604762Y-104367380D01*
X99604762Y-104367380D02*
X99604762Y-105367380D01*
X99128571Y-105367380D02*
X99128571Y-104700714D01*
X99128571Y-104367380D02*
X99176190Y-104415000D01*
X99176190Y-104415000D02*
X99128571Y-104462619D01*
X99128571Y-104462619D02*
X99080952Y-104415000D01*
X99080952Y-104415000D02*
X99128571Y-104367380D01*
X99128571Y-104367380D02*
X99128571Y-104462619D01*
X98652381Y-105367380D02*
X98652381Y-104367380D01*
X98557143Y-104986428D02*
X98271429Y-105367380D01*
X98271429Y-104700714D02*
X98652381Y-105081666D01*
X97461905Y-105319761D02*
X97557143Y-105367380D01*
X97557143Y-105367380D02*
X97747619Y-105367380D01*
X97747619Y-105367380D02*
X97842857Y-105319761D01*
X97842857Y-105319761D02*
X97890476Y-105224523D01*
X97890476Y-105224523D02*
X97890476Y-104843571D01*
X97890476Y-104843571D02*
X97842857Y-104748333D01*
X97842857Y-104748333D02*
X97747619Y-104700714D01*
X97747619Y-104700714D02*
X97557143Y-104700714D01*
X97557143Y-104700714D02*
X97461905Y-104748333D01*
X97461905Y-104748333D02*
X97414286Y-104843571D01*
X97414286Y-104843571D02*
X97414286Y-104938809D01*
X97414286Y-104938809D02*
X97890476Y-105034047D01*
X96385714Y-105367380D02*
X96385714Y-104367380D01*
X95814286Y-105367380D02*
X96242857Y-104795952D01*
X95814286Y-104367380D02*
X96385714Y-104938809D01*
X94957143Y-104700714D02*
X94957143Y-105367380D01*
X95385714Y-104700714D02*
X95385714Y-105224523D01*
X95385714Y-105224523D02*
X95338095Y-105319761D01*
X95338095Y-105319761D02*
X95242857Y-105367380D01*
X95242857Y-105367380D02*
X95100000Y-105367380D01*
X95100000Y-105367380D02*
X95004762Y-105319761D01*
X95004762Y-105319761D02*
X94957143Y-105272142D01*
X94528571Y-105319761D02*
X94433333Y-105367380D01*
X94433333Y-105367380D02*
X94242857Y-105367380D01*
X94242857Y-105367380D02*
X94147619Y-105319761D01*
X94147619Y-105319761D02*
X94100000Y-105224523D01*
X94100000Y-105224523D02*
X94100000Y-105176904D01*
X94100000Y-105176904D02*
X94147619Y-105081666D01*
X94147619Y-105081666D02*
X94242857Y-105034047D01*
X94242857Y-105034047D02*
X94385714Y-105034047D01*
X94385714Y-105034047D02*
X94480952Y-104986428D01*
X94480952Y-104986428D02*
X94528571Y-104891190D01*
X94528571Y-104891190D02*
X94528571Y-104843571D01*
X94528571Y-104843571D02*
X94480952Y-104748333D01*
X94480952Y-104748333D02*
X94385714Y-104700714D01*
X94385714Y-104700714D02*
X94242857Y-104700714D01*
X94242857Y-104700714D02*
X94147619Y-104748333D01*
X93671428Y-105367380D02*
X93671428Y-104367380D01*
X93242857Y-105367380D02*
X93242857Y-104843571D01*
X93242857Y-104843571D02*
X93290476Y-104748333D01*
X93290476Y-104748333D02*
X93385714Y-104700714D01*
X93385714Y-104700714D02*
X93528571Y-104700714D01*
X93528571Y-104700714D02*
X93623809Y-104748333D01*
X93623809Y-104748333D02*
X93671428Y-104795952D01*
X92766666Y-104700714D02*
X92766666Y-105367380D01*
X92766666Y-104795952D02*
X92719047Y-104748333D01*
X92719047Y-104748333D02*
X92623809Y-104700714D01*
X92623809Y-104700714D02*
X92480952Y-104700714D01*
X92480952Y-104700714D02*
X92385714Y-104748333D01*
X92385714Y-104748333D02*
X92338095Y-104843571D01*
X92338095Y-104843571D02*
X92338095Y-105367380D01*
X91480952Y-105319761D02*
X91576190Y-105367380D01*
X91576190Y-105367380D02*
X91766666Y-105367380D01*
X91766666Y-105367380D02*
X91861904Y-105319761D01*
X91861904Y-105319761D02*
X91909523Y-105224523D01*
X91909523Y-105224523D02*
X91909523Y-104843571D01*
X91909523Y-104843571D02*
X91861904Y-104748333D01*
X91861904Y-104748333D02*
X91766666Y-104700714D01*
X91766666Y-104700714D02*
X91576190Y-104700714D01*
X91576190Y-104700714D02*
X91480952Y-104748333D01*
X91480952Y-104748333D02*
X91433333Y-104843571D01*
X91433333Y-104843571D02*
X91433333Y-104938809D01*
X91433333Y-104938809D02*
X91909523Y-105034047D01*
X91004761Y-105367380D02*
X91004761Y-104700714D01*
X91004761Y-104891190D02*
X90957142Y-104795952D01*
X90957142Y-104795952D02*
X90909523Y-104748333D01*
X90909523Y-104748333D02*
X90814285Y-104700714D01*
X90814285Y-104700714D02*
X90719047Y-104700714D01*
X90385713Y-105367380D02*
X90385713Y-104700714D01*
X90385713Y-104367380D02*
X90433332Y-104415000D01*
X90433332Y-104415000D02*
X90385713Y-104462619D01*
X90385713Y-104462619D02*
X90338094Y-104415000D01*
X90338094Y-104415000D02*
X90385713Y-104367380D01*
X90385713Y-104367380D02*
X90385713Y-104462619D01*
X89909523Y-105367380D02*
X89909523Y-104367380D01*
X89814285Y-104986428D02*
X89528571Y-105367380D01*
X89528571Y-104700714D02*
X89909523Y-105081666D01*
X113914287Y-95617380D02*
X114247620Y-95141190D01*
X114485715Y-95617380D02*
X114485715Y-94617380D01*
X114485715Y-94617380D02*
X114104763Y-94617380D01*
X114104763Y-94617380D02*
X114009525Y-94665000D01*
X114009525Y-94665000D02*
X113961906Y-94712619D01*
X113961906Y-94712619D02*
X113914287Y-94807857D01*
X113914287Y-94807857D02*
X113914287Y-94950714D01*
X113914287Y-94950714D02*
X113961906Y-95045952D01*
X113961906Y-95045952D02*
X114009525Y-95093571D01*
X114009525Y-95093571D02*
X114104763Y-95141190D01*
X114104763Y-95141190D02*
X114485715Y-95141190D01*
X113485715Y-95617380D02*
X113485715Y-94617380D01*
X113485715Y-94617380D02*
X113104763Y-94617380D01*
X113104763Y-94617380D02*
X113009525Y-94665000D01*
X113009525Y-94665000D02*
X112961906Y-94712619D01*
X112961906Y-94712619D02*
X112914287Y-94807857D01*
X112914287Y-94807857D02*
X112914287Y-94950714D01*
X112914287Y-94950714D02*
X112961906Y-95045952D01*
X112961906Y-95045952D02*
X113009525Y-95093571D01*
X113009525Y-95093571D02*
X113104763Y-95141190D01*
X113104763Y-95141190D02*
X113485715Y-95141190D01*
X112533334Y-94712619D02*
X112485715Y-94665000D01*
X112485715Y-94665000D02*
X112390477Y-94617380D01*
X112390477Y-94617380D02*
X112152382Y-94617380D01*
X112152382Y-94617380D02*
X112057144Y-94665000D01*
X112057144Y-94665000D02*
X112009525Y-94712619D01*
X112009525Y-94712619D02*
X111961906Y-94807857D01*
X111961906Y-94807857D02*
X111961906Y-94903095D01*
X111961906Y-94903095D02*
X112009525Y-95045952D01*
X112009525Y-95045952D02*
X112580953Y-95617380D01*
X112580953Y-95617380D02*
X111961906Y-95617380D01*
X111342858Y-94617380D02*
X111247620Y-94617380D01*
X111247620Y-94617380D02*
X111152382Y-94665000D01*
X111152382Y-94665000D02*
X111104763Y-94712619D01*
X111104763Y-94712619D02*
X111057144Y-94807857D01*
X111057144Y-94807857D02*
X111009525Y-94998333D01*
X111009525Y-94998333D02*
X111009525Y-95236428D01*
X111009525Y-95236428D02*
X111057144Y-95426904D01*
X111057144Y-95426904D02*
X111104763Y-95522142D01*
X111104763Y-95522142D02*
X111152382Y-95569761D01*
X111152382Y-95569761D02*
X111247620Y-95617380D01*
X111247620Y-95617380D02*
X111342858Y-95617380D01*
X111342858Y-95617380D02*
X111438096Y-95569761D01*
X111438096Y-95569761D02*
X111485715Y-95522142D01*
X111485715Y-95522142D02*
X111533334Y-95426904D01*
X111533334Y-95426904D02*
X111580953Y-95236428D01*
X111580953Y-95236428D02*
X111580953Y-94998333D01*
X111580953Y-94998333D02*
X111533334Y-94807857D01*
X111533334Y-94807857D02*
X111485715Y-94712619D01*
X111485715Y-94712619D02*
X111438096Y-94665000D01*
X111438096Y-94665000D02*
X111342858Y-94617380D01*
X110152382Y-94950714D02*
X110152382Y-95617380D01*
X110390477Y-94569761D02*
X110628572Y-95284047D01*
X110628572Y-95284047D02*
X110009525Y-95284047D01*
X109438096Y-94617380D02*
X109342858Y-94617380D01*
X109342858Y-94617380D02*
X109247620Y-94665000D01*
X109247620Y-94665000D02*
X109200001Y-94712619D01*
X109200001Y-94712619D02*
X109152382Y-94807857D01*
X109152382Y-94807857D02*
X109104763Y-94998333D01*
X109104763Y-94998333D02*
X109104763Y-95236428D01*
X109104763Y-95236428D02*
X109152382Y-95426904D01*
X109152382Y-95426904D02*
X109200001Y-95522142D01*
X109200001Y-95522142D02*
X109247620Y-95569761D01*
X109247620Y-95569761D02*
X109342858Y-95617380D01*
X109342858Y-95617380D02*
X109438096Y-95617380D01*
X109438096Y-95617380D02*
X109533334Y-95569761D01*
X109533334Y-95569761D02*
X109580953Y-95522142D01*
X109580953Y-95522142D02*
X109628572Y-95426904D01*
X109628572Y-95426904D02*
X109676191Y-95236428D01*
X109676191Y-95236428D02*
X109676191Y-94998333D01*
X109676191Y-94998333D02*
X109628572Y-94807857D01*
X109628572Y-94807857D02*
X109580953Y-94712619D01*
X109580953Y-94712619D02*
X109533334Y-94665000D01*
X109533334Y-94665000D02*
X109438096Y-94617380D01*
X107504763Y-95617380D02*
X107838096Y-95141190D01*
X108076191Y-95617380D02*
X108076191Y-94617380D01*
X108076191Y-94617380D02*
X107695239Y-94617380D01*
X107695239Y-94617380D02*
X107600001Y-94665000D01*
X107600001Y-94665000D02*
X107552382Y-94712619D01*
X107552382Y-94712619D02*
X107504763Y-94807857D01*
X107504763Y-94807857D02*
X107504763Y-94950714D01*
X107504763Y-94950714D02*
X107552382Y-95045952D01*
X107552382Y-95045952D02*
X107600001Y-95093571D01*
X107600001Y-95093571D02*
X107695239Y-95141190D01*
X107695239Y-95141190D02*
X108076191Y-95141190D01*
X106647620Y-95617380D02*
X106647620Y-95093571D01*
X106647620Y-95093571D02*
X106695239Y-94998333D01*
X106695239Y-94998333D02*
X106790477Y-94950714D01*
X106790477Y-94950714D02*
X106980953Y-94950714D01*
X106980953Y-94950714D02*
X107076191Y-94998333D01*
X106647620Y-95569761D02*
X106742858Y-95617380D01*
X106742858Y-95617380D02*
X106980953Y-95617380D01*
X106980953Y-95617380D02*
X107076191Y-95569761D01*
X107076191Y-95569761D02*
X107123810Y-95474523D01*
X107123810Y-95474523D02*
X107123810Y-95379285D01*
X107123810Y-95379285D02*
X107076191Y-95284047D01*
X107076191Y-95284047D02*
X106980953Y-95236428D01*
X106980953Y-95236428D02*
X106742858Y-95236428D01*
X106742858Y-95236428D02*
X106647620Y-95188809D01*
X105742858Y-95617380D02*
X105742858Y-94617380D01*
X105742858Y-95569761D02*
X105838096Y-95617380D01*
X105838096Y-95617380D02*
X106028572Y-95617380D01*
X106028572Y-95617380D02*
X106123810Y-95569761D01*
X106123810Y-95569761D02*
X106171429Y-95522142D01*
X106171429Y-95522142D02*
X106219048Y-95426904D01*
X106219048Y-95426904D02*
X106219048Y-95141190D01*
X106219048Y-95141190D02*
X106171429Y-95045952D01*
X106171429Y-95045952D02*
X106123810Y-94998333D01*
X106123810Y-94998333D02*
X106028572Y-94950714D01*
X106028572Y-94950714D02*
X105838096Y-94950714D01*
X105838096Y-94950714D02*
X105742858Y-94998333D01*
X104838096Y-95617380D02*
X104838096Y-95093571D01*
X104838096Y-95093571D02*
X104885715Y-94998333D01*
X104885715Y-94998333D02*
X104980953Y-94950714D01*
X104980953Y-94950714D02*
X105171429Y-94950714D01*
X105171429Y-94950714D02*
X105266667Y-94998333D01*
X104838096Y-95569761D02*
X104933334Y-95617380D01*
X104933334Y-95617380D02*
X105171429Y-95617380D01*
X105171429Y-95617380D02*
X105266667Y-95569761D01*
X105266667Y-95569761D02*
X105314286Y-95474523D01*
X105314286Y-95474523D02*
X105314286Y-95379285D01*
X105314286Y-95379285D02*
X105266667Y-95284047D01*
X105266667Y-95284047D02*
X105171429Y-95236428D01*
X105171429Y-95236428D02*
X104933334Y-95236428D01*
X104933334Y-95236428D02*
X104838096Y-95188809D01*
X104361905Y-95617380D02*
X104361905Y-94950714D01*
X104361905Y-95141190D02*
X104314286Y-95045952D01*
X104314286Y-95045952D02*
X104266667Y-94998333D01*
X104266667Y-94998333D02*
X104171429Y-94950714D01*
X104171429Y-94950714D02*
X104076191Y-94950714D01*
X103142857Y-95617380D02*
X103142857Y-94617380D01*
X103142857Y-95093571D02*
X102571429Y-95093571D01*
X102571429Y-95617380D02*
X102571429Y-94617380D01*
X101666667Y-94950714D02*
X101666667Y-95617380D01*
X102095238Y-94950714D02*
X102095238Y-95474523D01*
X102095238Y-95474523D02*
X102047619Y-95569761D01*
X102047619Y-95569761D02*
X101952381Y-95617380D01*
X101952381Y-95617380D02*
X101809524Y-95617380D01*
X101809524Y-95617380D02*
X101714286Y-95569761D01*
X101714286Y-95569761D02*
X101666667Y-95522142D01*
X101190476Y-95617380D02*
X101190476Y-94950714D01*
X101190476Y-95045952D02*
X101142857Y-94998333D01*
X101142857Y-94998333D02*
X101047619Y-94950714D01*
X101047619Y-94950714D02*
X100904762Y-94950714D01*
X100904762Y-94950714D02*
X100809524Y-94998333D01*
X100809524Y-94998333D02*
X100761905Y-95093571D01*
X100761905Y-95093571D02*
X100761905Y-95617380D01*
X100761905Y-95093571D02*
X100714286Y-94998333D01*
X100714286Y-94998333D02*
X100619048Y-94950714D01*
X100619048Y-94950714D02*
X100476191Y-94950714D01*
X100476191Y-94950714D02*
X100380952Y-94998333D01*
X100380952Y-94998333D02*
X100333333Y-95093571D01*
X100333333Y-95093571D02*
X100333333Y-95617380D01*
X99428572Y-95617380D02*
X99428572Y-95093571D01*
X99428572Y-95093571D02*
X99476191Y-94998333D01*
X99476191Y-94998333D02*
X99571429Y-94950714D01*
X99571429Y-94950714D02*
X99761905Y-94950714D01*
X99761905Y-94950714D02*
X99857143Y-94998333D01*
X99428572Y-95569761D02*
X99523810Y-95617380D01*
X99523810Y-95617380D02*
X99761905Y-95617380D01*
X99761905Y-95617380D02*
X99857143Y-95569761D01*
X99857143Y-95569761D02*
X99904762Y-95474523D01*
X99904762Y-95474523D02*
X99904762Y-95379285D01*
X99904762Y-95379285D02*
X99857143Y-95284047D01*
X99857143Y-95284047D02*
X99761905Y-95236428D01*
X99761905Y-95236428D02*
X99523810Y-95236428D01*
X99523810Y-95236428D02*
X99428572Y-95188809D01*
X98952381Y-94950714D02*
X98952381Y-95617380D01*
X98952381Y-95045952D02*
X98904762Y-94998333D01*
X98904762Y-94998333D02*
X98809524Y-94950714D01*
X98809524Y-94950714D02*
X98666667Y-94950714D01*
X98666667Y-94950714D02*
X98571429Y-94998333D01*
X98571429Y-94998333D02*
X98523810Y-95093571D01*
X98523810Y-95093571D02*
X98523810Y-95617380D01*
X97447619Y-95617380D02*
X97447619Y-94617380D01*
X97447619Y-94617380D02*
X97066667Y-94617380D01*
X97066667Y-94617380D02*
X96971429Y-94665000D01*
X96971429Y-94665000D02*
X96923810Y-94712619D01*
X96923810Y-94712619D02*
X96876191Y-94807857D01*
X96876191Y-94807857D02*
X96876191Y-94950714D01*
X96876191Y-94950714D02*
X96923810Y-95045952D01*
X96923810Y-95045952D02*
X96971429Y-95093571D01*
X96971429Y-95093571D02*
X97066667Y-95141190D01*
X97066667Y-95141190D02*
X97447619Y-95141190D01*
X96447619Y-95617380D02*
X96447619Y-94950714D01*
X96447619Y-95141190D02*
X96400000Y-95045952D01*
X96400000Y-95045952D02*
X96352381Y-94998333D01*
X96352381Y-94998333D02*
X96257143Y-94950714D01*
X96257143Y-94950714D02*
X96161905Y-94950714D01*
X95447619Y-95569761D02*
X95542857Y-95617380D01*
X95542857Y-95617380D02*
X95733333Y-95617380D01*
X95733333Y-95617380D02*
X95828571Y-95569761D01*
X95828571Y-95569761D02*
X95876190Y-95474523D01*
X95876190Y-95474523D02*
X95876190Y-95093571D01*
X95876190Y-95093571D02*
X95828571Y-94998333D01*
X95828571Y-94998333D02*
X95733333Y-94950714D01*
X95733333Y-94950714D02*
X95542857Y-94950714D01*
X95542857Y-94950714D02*
X95447619Y-94998333D01*
X95447619Y-94998333D02*
X95400000Y-95093571D01*
X95400000Y-95093571D02*
X95400000Y-95188809D01*
X95400000Y-95188809D02*
X95876190Y-95284047D01*
X95019047Y-95569761D02*
X94923809Y-95617380D01*
X94923809Y-95617380D02*
X94733333Y-95617380D01*
X94733333Y-95617380D02*
X94638095Y-95569761D01*
X94638095Y-95569761D02*
X94590476Y-95474523D01*
X94590476Y-95474523D02*
X94590476Y-95426904D01*
X94590476Y-95426904D02*
X94638095Y-95331666D01*
X94638095Y-95331666D02*
X94733333Y-95284047D01*
X94733333Y-95284047D02*
X94876190Y-95284047D01*
X94876190Y-95284047D02*
X94971428Y-95236428D01*
X94971428Y-95236428D02*
X95019047Y-95141190D01*
X95019047Y-95141190D02*
X95019047Y-95093571D01*
X95019047Y-95093571D02*
X94971428Y-94998333D01*
X94971428Y-94998333D02*
X94876190Y-94950714D01*
X94876190Y-94950714D02*
X94733333Y-94950714D01*
X94733333Y-94950714D02*
X94638095Y-94998333D01*
X93780952Y-95569761D02*
X93876190Y-95617380D01*
X93876190Y-95617380D02*
X94066666Y-95617380D01*
X94066666Y-95617380D02*
X94161904Y-95569761D01*
X94161904Y-95569761D02*
X94209523Y-95474523D01*
X94209523Y-95474523D02*
X94209523Y-95093571D01*
X94209523Y-95093571D02*
X94161904Y-94998333D01*
X94161904Y-94998333D02*
X94066666Y-94950714D01*
X94066666Y-94950714D02*
X93876190Y-94950714D01*
X93876190Y-94950714D02*
X93780952Y-94998333D01*
X93780952Y-94998333D02*
X93733333Y-95093571D01*
X93733333Y-95093571D02*
X93733333Y-95188809D01*
X93733333Y-95188809D02*
X94209523Y-95284047D01*
X93304761Y-94950714D02*
X93304761Y-95617380D01*
X93304761Y-95045952D02*
X93257142Y-94998333D01*
X93257142Y-94998333D02*
X93161904Y-94950714D01*
X93161904Y-94950714D02*
X93019047Y-94950714D01*
X93019047Y-94950714D02*
X92923809Y-94998333D01*
X92923809Y-94998333D02*
X92876190Y-95093571D01*
X92876190Y-95093571D02*
X92876190Y-95617380D01*
X91971428Y-95569761D02*
X92066666Y-95617380D01*
X92066666Y-95617380D02*
X92257142Y-95617380D01*
X92257142Y-95617380D02*
X92352380Y-95569761D01*
X92352380Y-95569761D02*
X92399999Y-95522142D01*
X92399999Y-95522142D02*
X92447618Y-95426904D01*
X92447618Y-95426904D02*
X92447618Y-95141190D01*
X92447618Y-95141190D02*
X92399999Y-95045952D01*
X92399999Y-95045952D02*
X92352380Y-94998333D01*
X92352380Y-94998333D02*
X92257142Y-94950714D01*
X92257142Y-94950714D02*
X92066666Y-94950714D01*
X92066666Y-94950714D02*
X91971428Y-94998333D01*
X91161904Y-95569761D02*
X91257142Y-95617380D01*
X91257142Y-95617380D02*
X91447618Y-95617380D01*
X91447618Y-95617380D02*
X91542856Y-95569761D01*
X91542856Y-95569761D02*
X91590475Y-95474523D01*
X91590475Y-95474523D02*
X91590475Y-95093571D01*
X91590475Y-95093571D02*
X91542856Y-94998333D01*
X91542856Y-94998333D02*
X91447618Y-94950714D01*
X91447618Y-94950714D02*
X91257142Y-94950714D01*
X91257142Y-94950714D02*
X91161904Y-94998333D01*
X91161904Y-94998333D02*
X91114285Y-95093571D01*
X91114285Y-95093571D02*
X91114285Y-95188809D01*
X91114285Y-95188809D02*
X91590475Y-95284047D01*
X90133332Y-95569761D02*
X89990475Y-95617380D01*
X89990475Y-95617380D02*
X89752380Y-95617380D01*
X89752380Y-95617380D02*
X89657142Y-95569761D01*
X89657142Y-95569761D02*
X89609523Y-95522142D01*
X89609523Y-95522142D02*
X89561904Y-95426904D01*
X89561904Y-95426904D02*
X89561904Y-95331666D01*
X89561904Y-95331666D02*
X89609523Y-95236428D01*
X89609523Y-95236428D02*
X89657142Y-95188809D01*
X89657142Y-95188809D02*
X89752380Y-95141190D01*
X89752380Y-95141190D02*
X89942856Y-95093571D01*
X89942856Y-95093571D02*
X90038094Y-95045952D01*
X90038094Y-95045952D02*
X90085713Y-94998333D01*
X90085713Y-94998333D02*
X90133332Y-94903095D01*
X90133332Y-94903095D02*
X90133332Y-94807857D01*
X90133332Y-94807857D02*
X90085713Y-94712619D01*
X90085713Y-94712619D02*
X90038094Y-94665000D01*
X90038094Y-94665000D02*
X89942856Y-94617380D01*
X89942856Y-94617380D02*
X89704761Y-94617380D01*
X89704761Y-94617380D02*
X89561904Y-94665000D01*
X88752380Y-95569761D02*
X88847618Y-95617380D01*
X88847618Y-95617380D02*
X89038094Y-95617380D01*
X89038094Y-95617380D02*
X89133332Y-95569761D01*
X89133332Y-95569761D02*
X89180951Y-95474523D01*
X89180951Y-95474523D02*
X89180951Y-95093571D01*
X89180951Y-95093571D02*
X89133332Y-94998333D01*
X89133332Y-94998333D02*
X89038094Y-94950714D01*
X89038094Y-94950714D02*
X88847618Y-94950714D01*
X88847618Y-94950714D02*
X88752380Y-94998333D01*
X88752380Y-94998333D02*
X88704761Y-95093571D01*
X88704761Y-95093571D02*
X88704761Y-95188809D01*
X88704761Y-95188809D02*
X89180951Y-95284047D01*
X88276189Y-94950714D02*
X88276189Y-95617380D01*
X88276189Y-95045952D02*
X88228570Y-94998333D01*
X88228570Y-94998333D02*
X88133332Y-94950714D01*
X88133332Y-94950714D02*
X87990475Y-94950714D01*
X87990475Y-94950714D02*
X87895237Y-94998333D01*
X87895237Y-94998333D02*
X87847618Y-95093571D01*
X87847618Y-95093571D02*
X87847618Y-95617380D01*
X87419046Y-95569761D02*
X87323808Y-95617380D01*
X87323808Y-95617380D02*
X87133332Y-95617380D01*
X87133332Y-95617380D02*
X87038094Y-95569761D01*
X87038094Y-95569761D02*
X86990475Y-95474523D01*
X86990475Y-95474523D02*
X86990475Y-95426904D01*
X86990475Y-95426904D02*
X87038094Y-95331666D01*
X87038094Y-95331666D02*
X87133332Y-95284047D01*
X87133332Y-95284047D02*
X87276189Y-95284047D01*
X87276189Y-95284047D02*
X87371427Y-95236428D01*
X87371427Y-95236428D02*
X87419046Y-95141190D01*
X87419046Y-95141190D02*
X87419046Y-95093571D01*
X87419046Y-95093571D02*
X87371427Y-94998333D01*
X87371427Y-94998333D02*
X87276189Y-94950714D01*
X87276189Y-94950714D02*
X87133332Y-94950714D01*
X87133332Y-94950714D02*
X87038094Y-94998333D01*
X86419046Y-95617380D02*
X86514284Y-95569761D01*
X86514284Y-95569761D02*
X86561903Y-95522142D01*
X86561903Y-95522142D02*
X86609522Y-95426904D01*
X86609522Y-95426904D02*
X86609522Y-95141190D01*
X86609522Y-95141190D02*
X86561903Y-95045952D01*
X86561903Y-95045952D02*
X86514284Y-94998333D01*
X86514284Y-94998333D02*
X86419046Y-94950714D01*
X86419046Y-94950714D02*
X86276189Y-94950714D01*
X86276189Y-94950714D02*
X86180951Y-94998333D01*
X86180951Y-94998333D02*
X86133332Y-95045952D01*
X86133332Y-95045952D02*
X86085713Y-95141190D01*
X86085713Y-95141190D02*
X86085713Y-95426904D01*
X86085713Y-95426904D02*
X86133332Y-95522142D01*
X86133332Y-95522142D02*
X86180951Y-95569761D01*
X86180951Y-95569761D02*
X86276189Y-95617380D01*
X86276189Y-95617380D02*
X86419046Y-95617380D01*
X85657141Y-95617380D02*
X85657141Y-94950714D01*
X85657141Y-95141190D02*
X85609522Y-95045952D01*
X85609522Y-95045952D02*
X85561903Y-94998333D01*
X85561903Y-94998333D02*
X85466665Y-94950714D01*
X85466665Y-94950714D02*
X85371427Y-94950714D01*
X82500000Y-96500000D02*
X117500000Y-96500000D01*
X117500000Y-96500000D02*
X117500000Y-103500000D01*
X117500000Y-103500000D02*
X82500000Y-103500000D01*
X82500000Y-103500000D02*
X82500000Y-96500000D01*
%TO.C,D2*%
X122567380Y-104435714D02*
X122567380Y-103864286D01*
X122567380Y-104150000D02*
X121567380Y-104150000D01*
X121567380Y-104150000D02*
X121710238Y-104054762D01*
X121710238Y-104054762D02*
X121805476Y-103959524D01*
X121805476Y-103959524D02*
X121853095Y-103864286D01*
%TO.C,G\u002A\u002A\u002A*%
G36*
X78789359Y-96794867D02*
G01*
X78820741Y-96843707D01*
X78800749Y-96916926D01*
X78720792Y-97033414D01*
X78572280Y-97212061D01*
X78482475Y-97325886D01*
X78290907Y-97618102D01*
X78097641Y-97967794D01*
X77919555Y-98340883D01*
X77773528Y-98703287D01*
X77676438Y-99020925D01*
X77618040Y-99366985D01*
X77586792Y-99817375D01*
X77591161Y-100292641D01*
X77630581Y-100750062D01*
X77704490Y-101146916D01*
X77759902Y-101338810D01*
X77969925Y-101875160D01*
X78248726Y-102397876D01*
X78573083Y-102861126D01*
X78651199Y-102959317D01*
X78771816Y-103127646D01*
X78823236Y-103235243D01*
X78812420Y-103294717D01*
X78764550Y-103338969D01*
X78721632Y-103344114D01*
X78658734Y-103293746D01*
X78547377Y-103175000D01*
X78541544Y-103168666D01*
X78126412Y-102635850D01*
X77794713Y-102037675D01*
X77552035Y-101389042D01*
X77403972Y-100704850D01*
X77356112Y-100000000D01*
X77356806Y-99936877D01*
X77410365Y-99267827D01*
X77552870Y-98646320D01*
X77791303Y-98049472D01*
X78132642Y-97454405D01*
X78157638Y-97416534D01*
X78372934Y-97110240D01*
X78547604Y-96900981D01*
X78680018Y-96790485D01*
X78768546Y-96780480D01*
X78789359Y-96794867D01*
G37*
G36*
X79681852Y-97613725D02*
G01*
X79699278Y-97698950D01*
X79649333Y-97834201D01*
X79536368Y-97999979D01*
X79316897Y-98305248D01*
X79062011Y-98808717D01*
X78901037Y-99347293D01*
X78834086Y-99905307D01*
X78861263Y-100467090D01*
X78982679Y-101016974D01*
X79198440Y-101539292D01*
X79508655Y-102018375D01*
X79611395Y-102162548D01*
X79685427Y-102299041D01*
X79702026Y-102381743D01*
X79689792Y-102409162D01*
X79639101Y-102453990D01*
X79563857Y-102424213D01*
X79453216Y-102312621D01*
X79296333Y-102112004D01*
X79116985Y-101846906D01*
X78842178Y-101299439D01*
X78669975Y-100726581D01*
X78600240Y-100140304D01*
X78632841Y-99552580D01*
X78767644Y-98975382D01*
X79004515Y-98420680D01*
X79343321Y-97900448D01*
X79348254Y-97894144D01*
X79472803Y-97742836D01*
X79572764Y-97635236D01*
X79626900Y-97594273D01*
X79681852Y-97613725D01*
G37*
G36*
X80546507Y-98560855D02*
G01*
X80573144Y-98595591D01*
X80578787Y-98661978D01*
X80532769Y-98765384D01*
X80426760Y-98931607D01*
X80341873Y-99065452D01*
X80194447Y-99374441D01*
X80117399Y-99699623D01*
X80098503Y-100083920D01*
X80136485Y-100485702D01*
X80251713Y-100852584D01*
X80455742Y-101200959D01*
X80521083Y-101300880D01*
X80584673Y-101430339D01*
X80593829Y-101505945D01*
X80546245Y-101556042D01*
X80469678Y-101544437D01*
X80358402Y-101440638D01*
X80284787Y-101350541D01*
X80085392Y-101014447D01*
X79940802Y-100624697D01*
X79862994Y-100220076D01*
X79863945Y-99839370D01*
X79917488Y-99537261D01*
X80049841Y-99153650D01*
X80265747Y-98780085D01*
X80351999Y-98657971D01*
X80436674Y-98558846D01*
X80495393Y-98531251D01*
X80546507Y-98560855D01*
G37*
G36*
X81441003Y-99455351D02*
G01*
X81482577Y-99502241D01*
X81495503Y-99570471D01*
X81436981Y-99671581D01*
X81372397Y-99832787D01*
X81348835Y-100050876D01*
X81369670Y-100269676D01*
X81435032Y-100437532D01*
X81448616Y-100457483D01*
X81492404Y-100561371D01*
X81456667Y-100645179D01*
X81427720Y-100676136D01*
X81363552Y-100699762D01*
X81297454Y-100638671D01*
X81213191Y-100481985D01*
X81166699Y-100357658D01*
X81124695Y-100078181D01*
X81149094Y-99796006D01*
X81238593Y-99558443D01*
X81250945Y-99538304D01*
X81325234Y-99432576D01*
X81379197Y-99409707D01*
X81441003Y-99455351D01*
G37*
D11*
%TO.C,D2*%
X117850000Y-103650000D02*
X117850000Y-96350000D01*
X123350000Y-103650000D02*
X123350000Y-96350000D01*
X117850000Y-96350000D02*
X119000000Y-96350000D01*
%TO.C,J1*%
X82490000Y-96765000D02*
X83292470Y-96765000D01*
X82490000Y-101780000D02*
X82490000Y-96765000D01*
X82490000Y-101780000D02*
X83036529Y-101780000D01*
X82490000Y-102540000D02*
X82490000Y-103300000D01*
X82490000Y-103300000D02*
X83600000Y-103300000D01*
X83907530Y-96765000D02*
X84710000Y-96765000D01*
X84163471Y-101780000D02*
X84710000Y-101780000D01*
X84710000Y-101780000D02*
X84710000Y-96765000D01*
%TD*%
M02*
